<svg width="49" height="49" viewBox="0 0 49 49" fill="none" xmlns="http://www.w3.org/2000/svg">
<g clip-path="url(#clip0_173_7003)">
<path opacity="0.2" d="M36.5692 38C35.7415 37.9825 34.9347 37.737 34.2376 37.2905C33.5404 36.8441 32.9799 36.2139 32.6178 35.4695C32.2556 34.725 32.1059 33.8951 32.185 33.071C32.2641 32.2469 32.5691 31.4606 33.0662 30.7986C33.5634 30.1367 34.2335 29.6247 35.0029 29.319C35.7723 29.0133 36.6111 28.9258 37.427 29.0661C38.2429 29.2064 39.0043 29.569 39.6273 30.1141C40.2504 30.6592 40.7111 31.3656 40.9586 32.1557C42.7358 28.3717 43.1404 24.0871 42.1031 20.0373C41.0658 15.9875 38.6512 12.4251 35.2738 9.96145C31.8963 7.49779 27.7666 6.28657 23.5935 6.53566C19.4204 6.78475 15.4642 8.47863 12.4038 11.3266C9.34336 14.1745 7.36968 17.9989 6.82148 22.1433C6.27328 26.2877 7.18475 30.4937 9.39944 34.0394C11.6141 37.5851 14.9939 40.2494 18.9587 41.5749C22.9236 42.9004 27.2261 42.8046 31.128 41.3038C31.6529 40.3138 32.4357 39.484 33.3936 38.9025C34.3514 38.3209 35.4487 38.0091 36.5692 38Z" fill="#024AB0"/>
<path d="M33.667 20L24.667 24.5V14" stroke="#024AB0" stroke-width="2" stroke-linecap="round" stroke-linejoin="round"/>
<path d="M24.667 42.5C21.1069 42.5 17.6268 41.4443 14.6667 39.4665C11.7067 37.4886 9.39955 34.6774 8.03717 31.3883C6.67479 28.0992 6.31833 24.48 7.01287 20.9884C7.7074 17.4967 9.42173 14.2894 11.9391 11.7721C14.4564 9.25474 17.6637 7.54041 21.1554 6.84587C24.647 6.15134 28.2662 6.5078 31.5553 7.87018C34.8444 9.23255 37.6556 11.5397 39.6335 14.4997C41.6113 17.4598 42.667 20.9399 42.667 24.5" stroke="#024AB0" stroke-width="2" stroke-linecap="round" stroke-linejoin="round"/>
<path d="M30.667 42.5C31.3551 39.9125 33.7795 38 36.667 38C39.5545 38 41.9789 39.9125 42.667 42.5" stroke="#024AB0" stroke-width="2" stroke-linecap="round" stroke-linejoin="round"/>
<path d="M36.667 38C39.1523 38 41.167 35.9853 41.167 33.5C41.167 31.0147 39.1523 29 36.667 29C34.1817 29 32.167 31.0147 32.167 33.5C32.167 35.9853 34.1817 38 36.667 38Z" stroke="#024AB0" stroke-width="2" stroke-linecap="round" stroke-linejoin="round"/>
</g>
<defs>
<clipPath id="clip0_173_7003">
<rect width="48" height="48" fill="white" transform="translate(0.666992 0.5)"/>
</clipPath>
</defs>
</svg>
