<svg width="48" height="48" viewBox="0 0 48 48" fill="none" xmlns="http://www.w3.org/2000/svg">
<path opacity="0.2" d="M45.0007 24C45.0007 27.9782 43.4204 31.7935 40.6073 34.6066C37.7943 37.4196 33.979 39 30.0007 39H13.5007C12.0119 38.9982 10.5405 38.6797 9.18411 38.0658C7.82775 37.4519 6.61744 36.5566 5.63351 35.4392C4.64957 34.3219 3.9145 33.0081 3.47708 31.5849C3.03966 30.1618 2.90988 28.6619 3.09636 27.1848C3.28284 25.7077 3.78131 24.2872 4.5587 23.0174C5.33609 21.7477 6.37463 20.6578 7.60539 19.82C8.83615 18.9823 10.231 18.4158 11.6974 18.1583C13.1638 17.9007 14.6681 17.958 16.1107 18.3262V18.345C17.4233 15.1254 19.8136 12.4618 22.8728 10.8097C25.932 9.15747 29.4701 8.61931 32.8822 9.2872C36.2943 9.95509 39.3684 11.7875 41.5789 14.4712C43.7893 17.1549 44.9989 20.5231 45.0007 24Z" fill="url(#paint0_linear_767_7503)"/>
<path d="M33.4396 31.0613L30.0008 27.6206V39C30.0008 39.3978 29.8428 39.7794 29.5615 40.0607C29.2802 40.342 28.8986 40.5 28.5008 40.5C28.103 40.5 27.7214 40.342 27.4401 40.0607C27.1588 39.7794 27.0008 39.3978 27.0008 39V27.6206L23.5621 31.0613C23.4227 31.2006 23.2572 31.3112 23.0751 31.3866C22.8931 31.462 22.6979 31.5008 22.5008 31.5008C22.3037 31.5008 22.1085 31.462 21.9265 31.3866C21.7444 31.3112 21.5789 31.2006 21.4396 31.0613C21.3002 30.9219 21.1896 30.7564 21.1142 30.5743C21.0388 30.3923 21 30.1971 21 30C21 29.8029 21.0388 29.6077 21.1142 29.4257C21.1896 29.2436 21.3002 29.0781 21.4396 28.9387L27.4396 22.9387C27.5789 22.7993 27.7443 22.6886 27.9264 22.6132C28.1085 22.5377 28.3037 22.4988 28.5008 22.4988C28.6979 22.4988 28.8931 22.5377 29.0752 22.6132C29.2573 22.6886 29.4227 22.7993 29.5621 22.9387L35.5621 28.9387C35.7014 29.0781 35.812 29.2436 35.8874 29.4257C35.9628 29.6077 36.0016 29.8029 36.0016 30C36.0016 30.1971 35.9628 30.3923 35.8874 30.5743C35.812 30.7564 35.7014 30.9219 35.5621 31.0613C35.4227 31.2006 35.2572 31.3112 35.0751 31.3866C34.8931 31.462 34.6979 31.5008 34.5008 31.5008C34.3037 31.5008 34.1086 31.462 33.9265 31.3866C33.7444 31.3112 33.5789 31.2006 33.4396 31.0613ZM30.0008 7.5C26.9362 7.50231 23.9327 8.35728 21.3264 9.96925C18.72 11.5812 16.6135 13.8866 15.2427 16.6275C13.6105 16.3877 11.9465 16.4869 10.3544 16.9191C8.76235 17.3513 7.2765 18.107 5.98965 19.1392C4.7028 20.1714 3.6426 21.4579 2.87526 22.9182C2.10791 24.3786 1.64992 25.9814 1.52986 27.6267C1.40981 29.272 1.63029 30.9244 2.17752 32.4807C2.72476 34.0369 3.58699 35.4636 4.71038 36.6717C5.83377 37.8798 7.19417 38.8432 8.70664 39.5019C10.2191 40.1606 11.8511 40.5004 13.5008 40.5H21.0008C21.3986 40.5 21.7802 40.342 22.0615 40.0607C22.3428 39.7794 22.5008 39.3978 22.5008 39C22.5008 38.6022 22.3428 38.2206 22.0615 37.9393C21.7802 37.658 21.3986 37.5 21.0008 37.5H13.5008C11.1139 37.5 8.82467 36.5518 7.13684 34.864C5.44902 33.1761 4.5008 30.8869 4.5008 28.5C4.5008 26.1131 5.44902 23.8239 7.13684 22.136C8.82467 20.4482 11.1139 19.5 13.5008 19.5C13.7071 19.5 13.9133 19.5 14.1177 19.5225C13.7076 20.9796 13.5001 22.4863 13.5008 24C13.5008 24.3978 13.6588 24.7794 13.9401 25.0607C14.2214 25.342 14.603 25.5 15.0008 25.5C15.3986 25.5 15.7802 25.342 16.0615 25.0607C16.3428 24.7794 16.5008 24.3978 16.5008 24C16.5012 21.5662 17.1595 19.1777 18.4061 17.0874C19.6527 14.997 21.4412 13.2826 23.5824 12.1254C25.7235 10.9683 28.1377 10.4115 30.5693 10.514C33.001 10.6165 35.3597 11.3745 37.3959 12.7077C39.4321 14.0409 41.07 15.8998 42.1363 18.0876C43.2025 20.2754 43.6575 22.7108 43.4531 25.136C43.2486 27.5613 42.3924 29.8861 40.9749 31.8646C39.5574 33.843 37.6314 35.4015 35.4008 36.375C35.0841 36.5123 34.8244 36.7547 34.6656 37.0612C34.5067 37.3677 34.4585 37.7196 34.529 38.0576C34.5995 38.3955 34.7844 38.6988 35.0525 38.9163C35.3207 39.1337 35.6556 39.252 36.0008 39.2512C36.2075 39.2511 36.4119 39.2076 36.6008 39.1238C40.0758 37.6079 42.9228 34.9416 44.6629 31.5734C46.4031 28.2051 46.9302 24.3403 46.1557 20.629C45.3811 16.9178 43.3521 13.5864 40.41 11.1954C37.4678 8.80429 33.792 7.49934 30.0008 7.5Z" fill="url(#paint1_linear_767_7503)"/>
<defs>
<linearGradient id="paint0_linear_767_7503" x1="3.01367" y1="24.0039" x2="45.0007" y2="24.0039" gradientUnits="userSpaceOnUse">
<stop stop-color="#3B82F6"/>
<stop offset="1" stop-color="#114FD7"/>
</linearGradient>
<linearGradient id="paint1_linear_767_7503" x1="1.49805" y1="24" x2="46.5037" y2="24" gradientUnits="userSpaceOnUse">
<stop stop-color="#3B82F6"/>
<stop offset="1" stop-color="#114FD7"/>
</linearGradient>
</defs>
</svg>
