<svg width="49" height="48" viewBox="0 0 49 48" fill="none" xmlns="http://www.w3.org/2000/svg">
<g clip-path="url(#clip0_12_542)">
<path opacity="0.2" d="M33.6666 18.135V23.25C33.6666 26.625 28.1841 29.4094 21.016 29.9175C23.6241 30.9056 26.9916 31.5 30.6666 31.5C38.9504 31.5 45.6666 28.4775 45.6666 24.75C45.6666 21.4838 40.5141 18.7613 33.6666 18.135Z" fill="#024AB0"/>
<path opacity="0.2" d="M18.6666 22.5C26.9509 22.5 33.6666 19.4779 33.6666 15.75C33.6666 12.0221 26.9509 9 18.6666 9C10.3824 9 3.66663 12.0221 3.66663 15.75C3.66663 19.4779 10.3824 22.5 18.6666 22.5Z" fill="#024AB0"/>
<path d="M18.6666 22.5C26.9509 22.5 33.6666 19.4779 33.6666 15.75C33.6666 12.0221 26.9509 9 18.6666 9C10.3824 9 3.66663 12.0221 3.66663 15.75C3.66663 19.4779 10.3824 22.5 18.6666 22.5Z" stroke="#024AB0" stroke-width="2" stroke-linecap="round" stroke-linejoin="round"/>
<path d="M3.66663 15.75V23.25C3.66663 26.9775 10.3829 30 18.6666 30C26.9504 30 33.6666 26.9775 33.6666 23.25V15.75" stroke="#024AB0" stroke-width="2" stroke-linecap="round" stroke-linejoin="round"/>
<path d="M12.6666 21.9375V29.4375" stroke="#024AB0" stroke-width="2" stroke-linecap="round" stroke-linejoin="round"/>
<path d="M33.6666 18.135C40.5141 18.7613 45.6666 21.4838 45.6666 24.75C45.6666 28.4775 38.9504 31.5 30.6666 31.5C26.9916 31.5 23.6241 30.9056 21.016 29.9175" stroke="#024AB0" stroke-width="2" stroke-linecap="round" stroke-linejoin="round"/>
<path d="M15.6666 29.865V32.25C15.6666 35.9775 22.3829 39 30.6666 39C38.9504 39 45.6666 35.9775 45.6666 32.25V24.75" stroke="#024AB0" stroke-width="2" stroke-linecap="round" stroke-linejoin="round"/>
<path d="M36.6666 30.9375V38.4375" stroke="#024AB0" stroke-width="2" stroke-linecap="round" stroke-linejoin="round"/>
<path d="M24.6666 21.9375V38.4375" stroke="#024AB0" stroke-width="2" stroke-linecap="round" stroke-linejoin="round"/>
</g>
<defs>
<clipPath id="clip0_12_542">
<rect width="48" height="48" fill="white" transform="translate(0.666626)"/>
</clipPath>
</defs>
</svg>
