<svg width="48" height="48" viewBox="0 0 48 48" fill="none" xmlns="http://www.w3.org/2000/svg">
<path opacity="0.2" d="M42 10.5V37.5C42 37.8978 41.842 38.2794 41.5607 38.5607C41.2794 38.842 40.8978 39 40.5 39H7.5C7.10218 39 6.72064 38.842 6.43934 38.5607C6.15804 38.2794 6 37.8978 6 37.5V10.5C6 10.1022 6.15804 9.72064 6.43934 9.43934C6.72064 9.15804 7.10218 9 7.5 9H40.5C40.8978 9 41.2794 9.15804 41.5607 9.43934C41.842 9.72064 42 10.1022 42 10.5Z" fill="url(#paint0_linear_767_7510)"/>
<path d="M37.5 15V21C37.5 21.3978 37.342 21.7794 37.0607 22.0607C36.7794 22.342 36.3978 22.5 36 22.5C35.6022 22.5 35.2206 22.342 34.9393 22.0607C34.658 21.7794 34.5 21.3978 34.5 21V16.5H30C29.6022 16.5 29.2206 16.342 28.9393 16.0607C28.658 15.7794 28.5 15.3978 28.5 15C28.5 14.6022 28.658 14.2206 28.9393 13.9393C29.2206 13.658 29.6022 13.5 30 13.5H36C36.3978 13.5 36.7794 13.658 37.0607 13.9393C37.342 14.2206 37.5 14.6022 37.5 15ZM18 31.5H13.5V27C13.5 26.6022 13.342 26.2206 13.0607 25.9393C12.7794 25.658 12.3978 25.5 12 25.5C11.6022 25.5 11.2206 25.658 10.9393 25.9393C10.658 26.2206 10.5 26.6022 10.5 27V33C10.5 33.3978 10.658 33.7794 10.9393 34.0607C11.2206 34.342 11.6022 34.5 12 34.5H18C18.3978 34.5 18.7794 34.342 19.0607 34.0607C19.342 33.7794 19.5 33.3978 19.5 33C19.5 32.6022 19.342 32.2206 19.0607 31.9393C18.7794 31.658 18.3978 31.5 18 31.5ZM43.5 10.5V37.5C43.5 38.2956 43.1839 39.0587 42.6213 39.6213C42.0587 40.1839 41.2957 40.5 40.5 40.5H7.5C6.70435 40.5 5.94129 40.1839 5.37868 39.6213C4.81607 39.0587 4.5 38.2956 4.5 37.5V10.5C4.5 9.70435 4.81607 8.94129 5.37868 8.37868C5.94129 7.81607 6.70435 7.5 7.5 7.5H40.5C41.2957 7.5 42.0587 7.81607 42.6213 8.37868C43.1839 8.94129 43.5 9.70435 43.5 10.5ZM40.5 37.5V10.5H7.5V37.5H40.5Z" fill="url(#paint1_linear_767_7510)"/>
<defs>
<linearGradient id="paint0_linear_767_7510" x1="6" y1="24" x2="42" y2="24" gradientUnits="userSpaceOnUse">
<stop stop-color="#3B82F6"/>
<stop offset="1" stop-color="#114FD7"/>
</linearGradient>
<linearGradient id="paint1_linear_767_7510" x1="4.5" y1="24" x2="43.5" y2="24" gradientUnits="userSpaceOnUse">
<stop stop-color="#3B82F6"/>
<stop offset="1" stop-color="#114FD7"/>
</linearGradient>
</defs>
</svg>
