<svg width="49" height="48" viewBox="0 0 49 48" fill="none" xmlns="http://www.w3.org/2000/svg">
<g clip-path="url(#clip0_624_7650)">
<path d="M24.666 31.5C28.8082 31.5 32.166 28.1421 32.166 24C32.166 19.8579 28.8082 16.5 24.666 16.5C20.5239 16.5 17.166 19.8579 17.166 24C17.166 28.1421 20.5239 31.5 24.666 31.5Z" stroke="url(#paint0_linear_624_7650)" stroke-width="2" stroke-linecap="round" stroke-linejoin="round"/>
<path d="M8.435 33.3919C7.6062 31.9643 6.97124 30.4327 6.54688 28.8375L9.69312 24.9C9.6575 24.298 9.6575 23.6945 9.69312 23.0925L6.54875 19.155C6.97239 17.5595 7.60605 16.0274 8.43312 14.5988L13.4412 14.0363C13.8412 13.5857 14.2676 13.1593 14.7181 12.7594L15.2806 7.75313C16.7072 6.93 18.2368 6.30011 19.8294 5.88L23.7669 9.02625C24.3688 8.99063 24.9724 8.99063 25.5744 9.02625L29.5119 5.88188C31.1074 6.30552 32.6395 6.93918 34.0681 7.76625L34.6306 12.7744C35.0812 13.1743 35.5076 13.6007 35.9075 14.0513L40.9137 14.6138C41.7425 16.0413 42.3775 17.5729 42.8019 19.1681L39.6556 23.1056C39.6912 23.7076 39.6912 24.3112 39.6556 24.9131L42.8 28.8506C42.3793 30.4456 41.7488 31.9778 40.925 33.4069L35.9169 33.9694C35.517 34.42 35.0906 34.8463 34.64 35.2463L34.0775 40.2525C32.6499 41.0813 31.1183 41.7163 29.5231 42.1406L25.5856 38.9944C24.9837 39.03 24.3801 39.03 23.7781 38.9944L19.8406 42.1388C18.2456 41.7181 16.7135 41.0876 15.2844 40.2638L14.7219 35.2556C14.2713 34.8557 13.8449 34.4293 13.445 33.9788L8.435 33.3919Z" stroke="url(#paint1_linear_624_7650)" stroke-width="2" stroke-linecap="round" stroke-linejoin="round"/>
</g>
<defs>
<linearGradient id="paint0_linear_624_7650" x1="17.166" y1="24" x2="32.166" y2="24" gradientUnits="userSpaceOnUse">
<stop stop-color="#3B82F6"/>
<stop offset="1" stop-color="#114FD7"/>
</linearGradient>
<linearGradient id="paint1_linear_624_7650" x1="6.54688" y1="24.0103" x2="42.8019" y2="24.0103" gradientUnits="userSpaceOnUse">
<stop stop-color="#3B82F6"/>
<stop offset="1" stop-color="#114FD7"/>
</linearGradient>
<clipPath id="clip0_624_7650">
<rect width="48" height="48" fill="white" transform="translate(0.666016)"/>
</clipPath>
</defs>
</svg>
