<svg width="48" height="48" viewBox="0 0 48 48" fill="none" xmlns="http://www.w3.org/2000/svg">
<g clip-path="url(#clip0_421_7176)">
<path opacity="0.2" d="M24 42C33.9411 42 42 33.9411 42 24C42 14.0589 33.9411 6 24 6C14.0589 6 6 14.0589 6 24C6 33.9411 14.0589 42 24 42Z" fill="url(#paint0_linear_421_7176)"/>
<path d="M24 42C33.9411 42 42 33.9411 42 24C42 14.0589 33.9411 6 24 6C14.0589 6 6 14.0589 6 24C6 33.9411 14.0589 42 24 42Z" stroke="url(#paint1_linear_421_7176)" stroke-width="2" stroke-linecap="round" stroke-linejoin="round"/>
<path d="M31.5 24C31.5 36 24 42 24 42C24 42 16.5 36 16.5 24C16.5 12 24 6 24 6C24 6 31.5 12 31.5 24Z" stroke="url(#paint2_linear_421_7176)" stroke-width="2" stroke-linecap="round" stroke-linejoin="round"/>
<path d="M7.02344 18H40.9759" stroke="url(#paint3_linear_421_7176)" stroke-width="2" stroke-linecap="round" stroke-linejoin="round"/>
<path d="M7.02344 30H40.9759" stroke="url(#paint4_linear_421_7176)" stroke-width="2" stroke-linecap="round" stroke-linejoin="round"/>
</g>
<defs>
<linearGradient id="paint0_linear_421_7176" x1="6" y1="24" x2="42" y2="24" gradientUnits="userSpaceOnUse">
<stop stop-color="#3B82F6"/>
<stop offset="1" stop-color="#114FD7"/>
</linearGradient>
<linearGradient id="paint1_linear_421_7176" x1="6" y1="24" x2="42" y2="24" gradientUnits="userSpaceOnUse">
<stop stop-color="#3B82F6"/>
<stop offset="1" stop-color="#114FD7"/>
</linearGradient>
<linearGradient id="paint2_linear_421_7176" x1="16.5" y1="24" x2="31.5" y2="24" gradientUnits="userSpaceOnUse">
<stop stop-color="#3B82F6"/>
<stop offset="1" stop-color="#114FD7"/>
</linearGradient>
<linearGradient id="paint3_linear_421_7176" x1="7.02344" y1="18.5" x2="40.9759" y2="18.5" gradientUnits="userSpaceOnUse">
<stop stop-color="#3B82F6"/>
<stop offset="1" stop-color="#114FD7"/>
</linearGradient>
<linearGradient id="paint4_linear_421_7176" x1="7.02344" y1="30.5" x2="40.9759" y2="30.5" gradientUnits="userSpaceOnUse">
<stop stop-color="#3B82F6"/>
<stop offset="1" stop-color="#114FD7"/>
</linearGradient>
<clipPath id="clip0_421_7176">
<rect width="48" height="48" fill="white"/>
</clipPath>
</defs>
</svg>
