<svg width="48" height="48" viewBox="0 0 48 48" fill="none" xmlns="http://www.w3.org/2000/svg">
<g clip-path="url(#clip0_624_7629)">
<path d="M24 42C20.0218 42 16.2064 40.4196 13.3934 37.6066C10.5804 34.7936 9 30.9782 9 27V22.5C12.9782 22.5 16.7936 24.0804 19.6066 26.8934C22.4196 29.7064 24 33.5218 24 37.5V42Z" stroke="url(#paint0_linear_624_7629)" stroke-width="2" stroke-linecap="round" stroke-linejoin="round"/>
<path d="M24 42V37.5C24 35.5302 24.388 33.5796 25.1418 31.7597C25.8956 29.9399 27.0005 28.2863 28.3934 26.8934C29.7863 25.5005 31.4399 24.3956 33.2597 23.6418C35.0796 22.888 37.0302 22.5 39 22.5V27C39 30.9782 37.4196 34.7936 34.6066 37.6066C31.7936 40.4196 27.9782 42 24 42Z" stroke="url(#paint1_linear_624_7629)" stroke-width="2" stroke-linecap="round" stroke-linejoin="round"/>
<path d="M39 22.5V12C35.0218 12 31.2064 13.5804 28.3934 16.3934C25.5804 19.2064 24 23.0218 24 27V37.5" stroke="url(#paint2_linear_624_7629)" stroke-width="2" stroke-linecap="round" stroke-linejoin="round"/>
<path d="M9 22.5V12C12.9782 12 16.7936 13.5804 19.6066 16.3934C22.4196 19.2064 24 23.0218 24 27V37.5" stroke="url(#paint3_linear_624_7629)" stroke-width="2" stroke-linecap="round" stroke-linejoin="round"/>
<path d="M15.7598 13.6069C17.9291 7.53562 24.0004 4.5 24.0004 4.5C24.0004 4.5 30.0716 7.53563 32.2504 13.6088" stroke="url(#paint4_linear_624_7629)" stroke-width="2" stroke-linecap="round" stroke-linejoin="round"/>
</g>
<defs>
<linearGradient id="paint0_linear_624_7629" x1="9" y1="32.25" x2="24" y2="32.25" gradientUnits="userSpaceOnUse">
<stop stop-color="#3B82F6"/>
<stop offset="1" stop-color="#114FD7"/>
</linearGradient>
<linearGradient id="paint1_linear_624_7629" x1="39" y1="32.25" x2="24" y2="32.25" gradientUnits="userSpaceOnUse">
<stop stop-color="#3B82F6"/>
<stop offset="1" stop-color="#114FD7"/>
</linearGradient>
<linearGradient id="paint2_linear_624_7629" x1="24" y1="24.75" x2="39" y2="24.75" gradientUnits="userSpaceOnUse">
<stop stop-color="#3B82F6"/>
<stop offset="1" stop-color="#114FD7"/>
</linearGradient>
<linearGradient id="paint3_linear_624_7629" x1="9" y1="24.75" x2="24" y2="24.75" gradientUnits="userSpaceOnUse">
<stop stop-color="#3B82F6"/>
<stop offset="1" stop-color="#114FD7"/>
</linearGradient>
<linearGradient id="paint4_linear_624_7629" x1="15.7598" y1="9.05437" x2="32.2504" y2="9.05437" gradientUnits="userSpaceOnUse">
<stop stop-color="#3B82F6"/>
<stop offset="1" stop-color="#114FD7"/>
</linearGradient>
<clipPath id="clip0_624_7629">
<rect width="48" height="48" fill="white"/>
</clipPath>
</defs>
</svg>
