<svg width="92" height="93" viewBox="0 0 92 93" fill="none" xmlns="http://www.w3.org/2000/svg">
<path opacity="0.2" d="M64.1887 74.7653C68.2798 75.4133 72.1217 72.6221 72.7696 68.5309C73.4176 64.4398 70.6264 60.598 66.5352 59.95C62.4441 59.302 58.6023 62.0933 57.9543 66.1844C57.3063 70.2755 60.0976 74.1173 64.1887 74.7653Z" fill="#FF0000"/>
<path opacity="0.2" d="M68.0996 50.0732C72.1907 50.7212 76.0325 47.9299 76.6805 43.8388C77.3285 39.7476 74.5373 35.9058 70.4461 35.2579C66.355 34.6099 62.5132 37.4011 61.8652 41.4923C61.2172 45.5834 64.0085 49.4252 68.0996 50.0732Z" fill="#FF0000"/>
<path opacity="0.2" d="M37.5232 30.0434C41.6143 30.6914 45.4561 27.9001 46.1041 23.809C46.7521 19.7178 43.9608 15.876 39.8697 15.2281C35.7786 14.5801 31.9368 17.3713 31.2888 21.4625C30.6408 25.5536 33.432 29.3954 37.5232 30.0434Z" fill="#FF0000"/>
<path opacity="0.2" d="M19.482 69.372C23.5732 70.02 27.415 67.2287 28.063 63.1376C28.7109 59.0465 25.9197 55.2047 21.8286 54.5567C17.7374 53.9087 13.8956 56.6999 13.2476 60.7911C12.5997 64.8822 15.3909 68.724 19.482 69.372Z" fill="#FF0000"/>
<path d="M43.9393 39.308L41.4568 30.0115" stroke="#FF0000" stroke-width="3" stroke-linecap="round" stroke-linejoin="round"/>
<path d="M61.8739 43.895L53.2757 45.3238" stroke="#FF0000" stroke-width="3" stroke-linecap="round" stroke-linejoin="round"/>
<path d="M60.2362 61.8854L51.0024 52.0258" stroke="#FF0000" stroke-width="3" stroke-linecap="round" stroke-linejoin="round"/>
<path d="M39.5602 50.5963L26.8414 58.7445" stroke="#FF0000" stroke-width="3" stroke-linecap="round" stroke-linejoin="round"/>
<path d="M44.7034 53.961C48.7945 54.609 52.6363 51.8177 53.2843 47.7266C53.9323 43.6355 51.141 39.7936 47.0499 39.1457C42.9587 38.4977 39.1169 41.2889 38.469 45.3801C37.821 49.4712 40.6122 53.313 44.7034 53.961Z" stroke="#FF0000" stroke-width="3" stroke-linecap="round" stroke-linejoin="round"/>
<path d="M38.3463 30.1736C42.4374 30.8216 46.2793 28.0304 46.9272 23.9392C47.5752 19.8481 44.784 16.0063 40.6928 15.3583C36.6017 14.7103 32.7599 17.5016 32.1119 21.5927C31.4639 25.6839 34.2552 29.5257 38.3463 30.1736Z" stroke="#FF0000" stroke-width="3" stroke-linecap="round" stroke-linejoin="round"/>
<path d="M68.0996 50.0732C72.1907 50.7212 76.0325 47.9299 76.6805 43.8388C77.3285 39.7476 74.5373 35.9058 70.4461 35.2579C66.355 34.6099 62.5132 37.4011 61.8652 41.4923C61.2172 45.5834 64.0085 49.4252 68.0996 50.0732Z" stroke="#FF0000" stroke-width="3" stroke-linecap="round" stroke-linejoin="round"/>
<path d="M64.1887 74.7653C68.2798 75.4133 72.1217 72.6221 72.7696 68.5309C73.4176 64.4398 70.6264 60.598 66.5352 59.95C62.4441 59.302 58.6023 62.0933 57.9543 66.1844C57.3063 70.2755 60.0976 74.1173 64.1887 74.7653Z" stroke="#FF0000" stroke-width="3" stroke-linecap="round" stroke-linejoin="round"/>
<path d="M19.3517 70.195C23.4428 70.843 27.2846 68.0517 27.9326 63.9606C28.5806 59.8695 25.7893 56.0277 21.6982 55.3797C17.6071 54.7317 13.7652 57.5229 13.1173 61.6141C12.4693 65.7052 15.2605 69.547 19.3517 70.195Z" stroke="#FF0000" stroke-width="3" stroke-linecap="round" stroke-linejoin="round"/>
</svg>
