<svg width="49" height="48" viewBox="0 0 49 48" fill="none" xmlns="http://www.w3.org/2000/svg">
<g clip-path="url(#clip0_624_7698)">
<path d="M42.334 30H6.33398C5.50556 30 4.83398 30.6716 4.83398 31.5V36C4.83398 36.8284 5.50556 37.5 6.33398 37.5H42.334C43.1624 37.5 43.834 36.8284 43.834 36V31.5C43.834 30.6716 43.1624 30 42.334 30Z" stroke="url(#paint0_linear_624_7698)" stroke-width="2" stroke-linecap="round" stroke-linejoin="round"/>
<path d="M19.834 30V7.5C19.834 7.10218 19.992 6.72064 20.2733 6.43934C20.5546 6.15804 20.9362 6 21.334 6H27.334C27.7318 6 28.1133 6.15804 28.3946 6.43934C28.676 6.72064 28.834 7.10218 28.834 7.5V30" stroke="url(#paint1_linear_624_7698)" stroke-width="2" stroke-linecap="round" stroke-linejoin="round"/>
<path d="M40.834 30V25.5C40.835 21.9077 39.6637 18.4132 37.4979 15.5472C35.3321 12.6812 32.2901 10.6003 28.834 9.62061" stroke="url(#paint2_linear_624_7698)" stroke-width="2" stroke-linecap="round" stroke-linejoin="round"/>
<path d="M7.83399 30V25.5C7.83293 21.9077 9.00425 18.4132 11.1701 15.5472C13.3359 12.6812 16.3779 10.6003 19.834 9.62061" stroke="url(#paint3_linear_624_7698)" stroke-width="2" stroke-linecap="round" stroke-linejoin="round"/>
</g>
<defs>
<linearGradient id="paint0_linear_624_7698" x1="4.83398" y1="33.75" x2="43.834" y2="33.75" gradientUnits="userSpaceOnUse">
<stop stop-color="#3B82F6"/>
<stop offset="1" stop-color="#114FD7"/>
</linearGradient>
<linearGradient id="paint1_linear_624_7698" x1="19.834" y1="18" x2="28.834" y2="18" gradientUnits="userSpaceOnUse">
<stop stop-color="#3B82F6"/>
<stop offset="1" stop-color="#114FD7"/>
</linearGradient>
<linearGradient id="paint2_linear_624_7698" x1="28.834" y1="19.8103" x2="40.834" y2="19.8103" gradientUnits="userSpaceOnUse">
<stop stop-color="#3B82F6"/>
<stop offset="1" stop-color="#114FD7"/>
</linearGradient>
<linearGradient id="paint3_linear_624_7698" x1="7.83398" y1="19.8103" x2="19.834" y2="19.8103" gradientUnits="userSpaceOnUse">
<stop stop-color="#3B82F6"/>
<stop offset="1" stop-color="#114FD7"/>
</linearGradient>
<clipPath id="clip0_624_7698">
<rect width="48" height="48" fill="white" transform="translate(0.333984)"/>
</clipPath>
</defs>
</svg>
