<svg width="49" height="48" viewBox="0 0 49 48" fill="none" xmlns="http://www.w3.org/2000/svg">
<g clip-path="url(#clip0_12_617)">
<path opacity="0.2" d="M6.33337 34.5C6.33337 35.2956 6.64944 36.0587 7.21205 36.6213C7.77466 37.1839 8.53772 37.5 9.33337 37.5H12.3334C13.129 37.5 13.8921 37.1839 14.4547 36.6213C15.0173 36.0587 15.3334 35.2956 15.3334 34.5V27C15.3334 26.2044 15.0173 25.4413 14.4547 24.8787C13.8921 24.3161 13.129 24 12.3334 24H6.33337V34.5Z" fill="#F9A51D"/>
<path opacity="0.2" d="M36.3334 24C35.5377 24 34.7747 24.3161 34.2121 24.8787C33.6494 25.4413 33.3334 26.2044 33.3334 27V34.5C33.3334 35.2956 33.6494 36.0587 34.2121 36.6213C34.7747 37.1839 35.5377 37.5 36.3334 37.5H42.3334V24H36.3334Z" fill="#F9A51D"/>
<path d="M42.3334 37.5V39C42.3334 40.5913 41.7012 42.1174 40.576 43.2426C39.4508 44.3679 37.9247 45 36.3334 45H25.8334" stroke="#F9A51D" stroke-width="2" stroke-linecap="round" stroke-linejoin="round"/>
<path d="M42.3334 24H36.3334C35.5377 24 34.7747 24.3161 34.2121 24.8787C33.6494 25.4413 33.3334 26.2044 33.3334 27V34.5C33.3334 35.2956 33.6494 36.0587 34.2121 36.6213C34.7747 37.1839 35.5377 37.5 36.3334 37.5H42.3334V24ZM42.3334 24C42.3334 21.6362 41.8678 19.2956 40.9632 17.1117C40.0586 14.9278 38.7327 12.9435 37.0613 11.2721C35.3898 9.60062 33.4055 8.27475 31.2217 7.37017C29.0378 6.46558 26.6972 6 24.3334 6C21.9696 6 19.6289 6.46558 17.4451 7.37017C15.2612 8.27475 13.2769 9.60062 11.6055 11.2721C9.934 12.9435 8.60813 14.9278 7.70354 17.1117C6.79896 19.2956 6.33337 21.6362 6.33337 24M6.33337 24V34.5C6.33337 35.2956 6.64944 36.0587 7.21205 36.6213C7.77466 37.1839 8.53772 37.5 9.33337 37.5H12.3334C13.129 37.5 13.8921 37.1839 14.4547 36.6213C15.0173 36.0587 15.3334 35.2956 15.3334 34.5V27C15.3334 26.2044 15.0173 25.4413 14.4547 24.8787C13.8921 24.3161 13.129 24 12.3334 24H6.33337Z" stroke="#F9A51D" stroke-width="2" stroke-linecap="round" stroke-linejoin="round"/>
</g>
<defs>
<clipPath id="clip0_12_617">
<rect width="48" height="48" fill="white" transform="translate(0.333374)"/>
</clipPath>
</defs>
</svg>
