<svg width="49" height="48" viewBox="0 0 49 48" fill="none" xmlns="http://www.w3.org/2000/svg">
<g clip-path="url(#clip0_421_7071)">
<path opacity="0.2" d="M8.16699 33V13.5C8.16699 12.7044 8.48306 11.9413 9.04567 11.3787C9.60828 10.8161 10.3713 10.5 11.167 10.5H38.167C38.9626 10.5 39.7257 10.8161 40.2883 11.3787C40.8509 11.9413 41.167 12.7044 41.167 13.5V33H8.16699Z" fill="url(#paint0_linear_421_7071)"/>
<path d="M8.16699 33V13.5C8.16699 12.7044 8.48306 11.9413 9.04567 11.3787C9.60828 10.8161 10.3713 10.5 11.167 10.5H38.167C38.9626 10.5 39.7257 10.8161 40.2883 11.3787C40.8509 11.9413 41.167 12.7044 41.167 13.5V33" stroke="url(#paint1_linear_421_7071)" stroke-width="2" stroke-linecap="round" stroke-linejoin="round"/>
<path d="M5.16699 33H44.167V36C44.167 36.7956 43.8509 37.5587 43.2883 38.1213C42.7257 38.6839 41.9626 39 41.167 39H8.16699C7.37134 39 6.60828 38.6839 6.04567 38.1213C5.48306 37.5587 5.16699 36.7956 5.16699 36V33Z" stroke="url(#paint2_linear_421_7071)" stroke-width="2" stroke-linecap="round" stroke-linejoin="round"/>
<path d="M27.667 16.5H21.667" stroke="url(#paint3_linear_421_7071)" stroke-width="2" stroke-linecap="round" stroke-linejoin="round"/>
</g>
<defs>
<linearGradient id="paint0_linear_421_7071" x1="8.16699" y1="21.75" x2="41.167" y2="21.75" gradientUnits="userSpaceOnUse">
<stop stop-color="#3B82F6"/>
<stop offset="1" stop-color="#114FD7"/>
</linearGradient>
<linearGradient id="paint1_linear_421_7071" x1="8.16699" y1="21.75" x2="41.167" y2="21.75" gradientUnits="userSpaceOnUse">
<stop stop-color="#3B82F6"/>
<stop offset="1" stop-color="#114FD7"/>
</linearGradient>
<linearGradient id="paint2_linear_421_7071" x1="5.16699" y1="36" x2="44.167" y2="36" gradientUnits="userSpaceOnUse">
<stop stop-color="#3B82F6"/>
<stop offset="1" stop-color="#114FD7"/>
</linearGradient>
<linearGradient id="paint3_linear_421_7071" x1="21.667" y1="17" x2="27.667" y2="17" gradientUnits="userSpaceOnUse">
<stop stop-color="#3B82F6"/>
<stop offset="1" stop-color="#114FD7"/>
</linearGradient>
<clipPath id="clip0_421_7071">
<rect width="48" height="48" fill="white" transform="translate(0.666992)"/>
</clipPath>
</defs>
</svg>
