<svg width="49" height="48" viewBox="0 0 49 48" fill="none" xmlns="http://www.w3.org/2000/svg">
<g clip-path="url(#clip0_12_604)">
<path opacity="0.2" d="M15.4229 31.3125C13.6397 29.9195 12.1954 28.1405 11.1984 26.1092C10.2014 24.0779 9.6777 21.8471 9.66661 19.5844C9.62161 11.4544 16.1766 4.68751 24.3047 4.50001C27.4548 4.42371 30.5488 5.34132 33.1479 7.12264C35.747 8.90397 37.7192 11.4585 38.7845 14.4239C39.8499 17.3893 39.9544 20.6149 39.0832 23.643C38.212 26.6711 36.4093 29.3479 33.931 31.2938C33.3843 31.7176 32.9414 32.2604 32.6357 32.8808C32.33 33.5013 32.1696 34.1833 32.1666 34.875V36C32.1666 36.3978 32.0086 36.7794 31.7273 37.0607C31.446 37.342 31.0644 37.5 30.6666 37.5H18.6666C18.2688 37.5 17.8873 37.342 17.606 37.0607C17.3246 36.7794 17.1666 36.3978 17.1666 36V34.875C17.1659 34.1877 17.0085 33.5096 16.7063 32.8923C16.4042 32.275 15.9652 31.7347 15.4229 31.3125Z" fill="#024AB0"/>
<path d="M17.1666 43.5H32.1666" stroke="#024AB0" stroke-width="2" stroke-linecap="round" stroke-linejoin="round"/>
<path d="M15.4229 31.3125C13.6397 29.9195 12.1954 28.1405 11.1984 26.1092C10.2014 24.0779 9.6777 21.8471 9.66661 19.5844C9.62161 11.4544 16.1766 4.68751 24.3047 4.50001C27.4548 4.42371 30.5488 5.34132 33.1479 7.12264C35.747 8.90397 37.7192 11.4585 38.7845 14.4239C39.8499 17.3893 39.9544 20.6149 39.0832 23.643C38.212 26.6711 36.4093 29.3479 33.931 31.2938C33.3843 31.7176 32.9414 32.2604 32.6357 32.8808C32.33 33.5013 32.1696 34.1833 32.1666 34.875V36C32.1666 36.3978 32.0086 36.7794 31.7273 37.0607C31.446 37.342 31.0644 37.5 30.6666 37.5H18.6666C18.2688 37.5 17.8873 37.342 17.606 37.0607C17.3246 36.7794 17.1666 36.3978 17.1666 36V34.875C17.1659 34.1877 17.0085 33.5096 16.7063 32.8923C16.4042 32.275 15.9652 31.7347 15.4229 31.3125Z" stroke="#024AB0" stroke-width="2" stroke-linecap="round" stroke-linejoin="round"/>
<path d="M26.1666 10.5C29.9166 11.1319 33.031 14.25 33.6666 18" stroke="#024AB0" stroke-width="2" stroke-linecap="round" stroke-linejoin="round"/>
</g>
<defs>
<clipPath id="clip0_12_604">
<rect width="48" height="48" fill="white" transform="translate(0.666626)"/>
</clipPath>
</defs>
</svg>
