<svg width="48" height="48" viewBox="0 0 48 48" fill="none" xmlns="http://www.w3.org/2000/svg">
<g clip-path="url(#clip0_421_7037)">
<path opacity="0.2" d="M40.5 12H24V36H40.5V12Z" fill="url(#paint0_linear_421_7037)"/>
<path d="M24 24H40.5" stroke="url(#paint1_linear_421_7037)" stroke-width="2" stroke-linecap="round" stroke-linejoin="round"/>
<path d="M24 12H40.5" stroke="url(#paint2_linear_421_7037)" stroke-width="2" stroke-linecap="round" stroke-linejoin="round"/>
<path d="M24 36H40.5" stroke="url(#paint3_linear_421_7037)" stroke-width="2" stroke-linecap="round" stroke-linejoin="round"/>
<path d="M7.5 12L10.5 15L16.5 9" stroke="url(#paint4_linear_421_7037)" stroke-width="2" stroke-linecap="round" stroke-linejoin="round"/>
<path d="M7.5 24L10.5 27L16.5 21" stroke="url(#paint5_linear_421_7037)" stroke-width="2" stroke-linecap="round" stroke-linejoin="round"/>
<path d="M7.5 36L10.5 39L16.5 33" stroke="url(#paint6_linear_421_7037)" stroke-width="2" stroke-linecap="round" stroke-linejoin="round"/>
</g>
<defs>
<linearGradient id="paint0_linear_421_7037" x1="24" y1="24" x2="40.5" y2="24" gradientUnits="userSpaceOnUse">
<stop stop-color="#3B82F6"/>
<stop offset="1" stop-color="#114FD7"/>
</linearGradient>
<linearGradient id="paint1_linear_421_7037" x1="24" y1="24.5" x2="40.5" y2="24.5" gradientUnits="userSpaceOnUse">
<stop stop-color="#3B82F6"/>
<stop offset="1" stop-color="#114FD7"/>
</linearGradient>
<linearGradient id="paint2_linear_421_7037" x1="24" y1="12.5" x2="40.5" y2="12.5" gradientUnits="userSpaceOnUse">
<stop stop-color="#3B82F6"/>
<stop offset="1" stop-color="#114FD7"/>
</linearGradient>
<linearGradient id="paint3_linear_421_7037" x1="24" y1="36.5" x2="40.5" y2="36.5" gradientUnits="userSpaceOnUse">
<stop stop-color="#3B82F6"/>
<stop offset="1" stop-color="#114FD7"/>
</linearGradient>
<linearGradient id="paint4_linear_421_7037" x1="7.5" y1="12" x2="16.5" y2="12" gradientUnits="userSpaceOnUse">
<stop stop-color="#3B82F6"/>
<stop offset="1" stop-color="#114FD7"/>
</linearGradient>
<linearGradient id="paint5_linear_421_7037" x1="7.5" y1="24" x2="16.5" y2="24" gradientUnits="userSpaceOnUse">
<stop stop-color="#3B82F6"/>
<stop offset="1" stop-color="#114FD7"/>
</linearGradient>
<linearGradient id="paint6_linear_421_7037" x1="7.5" y1="36" x2="16.5" y2="36" gradientUnits="userSpaceOnUse">
<stop stop-color="#3B82F6"/>
<stop offset="1" stop-color="#114FD7"/>
</linearGradient>
<clipPath id="clip0_421_7037">
<rect width="48" height="48" fill="white"/>
</clipPath>
</defs>
</svg>
