<svg width="48" height="48" viewBox="0 0 48 48" fill="none" xmlns="http://www.w3.org/2000/svg">
<g clip-path="url(#clip0_421_7147)">
<path opacity="0.2" d="M21 36C29.2843 36 36 29.2843 36 21C36 12.7157 29.2843 6 21 6C12.7157 6 6 12.7157 6 21C6 29.2843 12.7157 36 21 36Z" fill="url(#paint0_linear_421_7147)"/>
<path d="M21 36C29.2843 36 36 29.2843 36 21C36 12.7157 29.2843 6 21 6C12.7157 6 6 12.7157 6 21C6 29.2843 12.7157 36 21 36Z" stroke="url(#paint1_linear_421_7147)" stroke-width="2" stroke-linecap="round" stroke-linejoin="round"/>
<path d="M31.6064 31.6069L41.9996 42.0001" stroke="url(#paint2_linear_421_7147)" stroke-width="2" stroke-linecap="round" stroke-linejoin="round"/>
</g>
<defs>
<linearGradient id="paint0_linear_421_7147" x1="6" y1="21" x2="36" y2="21" gradientUnits="userSpaceOnUse">
<stop stop-color="#3B82F6"/>
<stop offset="1" stop-color="#114FD7"/>
</linearGradient>
<linearGradient id="paint1_linear_421_7147" x1="6" y1="21" x2="36" y2="21" gradientUnits="userSpaceOnUse">
<stop stop-color="#3B82F6"/>
<stop offset="1" stop-color="#114FD7"/>
</linearGradient>
<linearGradient id="paint2_linear_421_7147" x1="31.6064" y1="36.8035" x2="41.9996" y2="36.8035" gradientUnits="userSpaceOnUse">
<stop stop-color="#3B82F6"/>
<stop offset="1" stop-color="#114FD7"/>
</linearGradient>
<clipPath id="clip0_421_7147">
<rect width="48" height="48" fill="white"/>
</clipPath>
</defs>
</svg>
