<svg width="89" height="89" viewBox="0 0 89 89" fill="none" xmlns="http://www.w3.org/2000/svg">
<path opacity="0.2" d="M48.3068 11.9718L33.389 10.4039C32.0159 10.2596 30.7857 11.2557 30.6414 12.6289L27.2442 44.9508C27.0999 46.324 28.096 47.5541 29.4692 47.6985L44.387 49.2664C45.7602 49.4107 46.9903 48.4146 47.1347 47.0414L50.5318 14.7195C50.6761 13.3463 49.68 12.1161 48.3068 11.9718Z" fill="#08A652"/>
<path d="M12.1995 68.5073L71.8708 74.779" stroke="#08A652" stroke-width="3" stroke-linecap="round" stroke-linejoin="round"/>
<path d="M25.9376 57.3823L45.8281 59.4729" stroke="#08A652" stroke-width="3" stroke-linecap="round" stroke-linejoin="round"/>
<path d="M48.3068 11.9718L33.389 10.4039C32.0159 10.2596 30.7857 11.2557 30.6414 12.6289L27.2442 44.9508C27.0999 46.324 28.096 47.5541 29.4692 47.6985L44.387 49.2664C45.7602 49.4107 46.9903 48.4146 47.1347 47.0414L50.5318 14.7195C50.6761 13.3463 49.68 12.1161 48.3068 11.9718Z" stroke="#08A652" stroke-width="3" stroke-linecap="round" stroke-linejoin="round"/>
<path d="M49.2252 27.151C54.4435 27.6995 59.357 29.8759 63.2696 33.3721C67.1823 36.8682 69.8957 41.5068 71.0255 46.6308C72.1554 51.7547 71.6444 57.1043 69.5649 61.9217C67.4855 66.7392 63.943 70.7802 59.4393 73.4724" stroke="#08A652" stroke-width="3" stroke-linecap="round" stroke-linejoin="round"/>
</svg>
