<svg width="232" height="50" viewBox="0 0 232 50" fill="none" xmlns="http://www.w3.org/2000/svg">
<path fill-rule="evenodd" clip-rule="evenodd" d="M102.014 12.6674L101.875 12.601C101.861 12.5927 100.225 11.856 98.9457 13.202L98.7824 13.3743L101.402 14.6584L102.014 12.6674ZM114.006 27.0527C114.006 27.0527 112.864 29.0966 112.353 29.852C111.839 30.6134 110.232 31.0861 108.843 30.4225C108.207 30.1205 102.263 26.6537 99.989 26.8521C88.4761 27.8558 85.3397 23.1124 84.9698 22.6814C84.5985 22.2504 83.9065 22.4509 84.4009 23.2988C86.9266 27.6298 94.4007 29.638 94.4007 29.638C96.3552 34.3478 96.5893 37.6476 96.5893 37.6476C94.6535 36.139 92.564 34.8676 90.3471 33.8117C84.4217 29.8356 75.146 24.9118 62.3781 21.8253C63.1119 11.6972 68.2222 -2.94387 92.1204 0.518419C92.1204 0.518419 96.9152 1.30439 100.112 3.51464C100.112 3.51464 99.3439 4.32 98.3343 5.32818C97.3246 6.33405 98.4417 6.97991 98.4417 6.97991L103.489 10.9478C103.548 13.0469 103.635 13.6353 105.214 15.5353C106.793 17.4316 112.934 23.8633 113.737 24.7238C114.668 25.7186 114.006 27.0527 114.006 27.0527ZM58.9673 7.311C57.7033 12.5175 57.8003 17.105 58.4498 20.9618C57.2499 20.7232 56.0322 20.4942 54.7772 20.2898C28.6225 16.0335 20.7338 28.9244 23.7866 39.3768C15.1403 42.6266 7.01436 46.3469 0.490234 50C10.7555 25.3801 33.0639 3.71076 51.8921 0.862932C58.0396 0.0523563 59.7689 4.04036 58.9673 7.311Z" fill="#1F2555"/>
<path fill-rule="evenodd" clip-rule="evenodd" d="M62.5906 29.8127C72.7806 29.0074 82.3979 30.0297 90.3463 33.8119C84.4218 29.8358 75.146 24.912 62.3774 21.8255C62.1223 25.3542 62.3953 28.334 62.5906 29.8127ZM61.1201 29.941C49.7027 31.0304 36.2026 34.7142 23.7867 39.3771C20.7338 28.9246 28.6233 16.0336 54.7772 20.2901C56.0322 20.4944 57.2499 20.7234 58.449 20.962C59.0694 24.6495 60.1925 27.6785 61.1201 29.941Z" fill="#00A6A7"/>
<path fill-rule="evenodd" clip-rule="evenodd" d="M214.071 26.0458L217.612 17.4009L221.154 26.0458H214.071ZM214.983 10.357L203.561 37.2022H209.539L211.974 31.2254H223.249L225.684 37.2022H231.816L220.393 10.357H214.983ZM141.005 19.8304C141.005 22.1294 139.281 23.8936 136.328 23.8936H131.648V15.688H136.211C139.166 15.688 141.005 17.1071 141.005 19.7536V19.8304ZM136.711 10.357H125.742V37.2022H131.648V29.1487H136.134C142.155 29.1487 146.99 25.9258 146.99 19.7133V19.6365C146.99 14.1526 143.117 10.357 136.711 10.357ZM179.123 13.3547C176.308 16.1049 174.88 19.5858 174.88 23.7021C174.88 27.8221 176.281 31.2769 179.047 33.977C181.809 36.6743 185.281 38.0396 189.368 38.0396C194.207 38.0396 197.989 36.5751 200.616 33.6855L200.752 33.5334V21.2114H189.076V26.1987H195.166V31.2313C193.589 32.1702 191.621 32.6467 189.313 32.6467C186.92 32.6467 184.857 31.8272 183.179 30.2075C181.504 28.5954 180.655 26.4097 180.655 23.7244C180.655 21.0369 181.53 18.8423 183.254 17.2026C184.984 15.556 187.157 14.7209 189.713 14.7209C191.058 14.7209 192.248 14.8864 193.251 15.213C194.192 15.5188 195.145 16.0743 196.09 16.8536L199.356 12.7306C197.632 11.2123 194.531 9.21387 189.368 9.21387C185.385 9.21387 181.938 10.6075 179.123 13.3547ZM157.178 26.4671H168.741V21.2114H157.178V15.6082H171.56V10.3569H151.31V37.2021H171.751V31.9487H157.178V26.4671Z" fill="#1F2555"/>
</svg>
