<svg width="85" height="85" viewBox="0 0 85 85" fill="none" xmlns="http://www.w3.org/2000/svg">
<path opacity="0.2" d="M21.0016 68.6998C20.3394 68.6651 19.7182 68.3688 19.2745 67.876C18.8309 67.3833 18.6011 66.7345 18.6358 66.0724L19.334 52.75C17.9692 53.3104 16.4848 53.5165 15.0189 53.3492C13.553 53.182 12.1532 52.6467 10.9497 51.7933C9.74612 50.9399 8.77792 49.796 8.13508 48.468C7.49224 47.14 7.19564 45.6711 7.27286 44.1977C7.35007 42.7243 7.7986 41.2944 8.57673 40.0408C9.35486 38.7873 10.4373 37.7509 11.7235 37.028C13.0096 36.3051 14.4577 35.9191 15.9331 35.906C17.4084 35.8929 18.8631 36.253 20.1619 36.9529L20.8601 23.6306C20.8948 22.9685 21.1911 22.3472 21.6839 21.9036C22.1766 21.4599 22.8254 21.2302 23.4875 21.2649L38.0581 22.0285C37.4971 20.6636 37.2904 19.1789 37.4572 17.7127C37.6241 16.2464 38.1591 14.8462 39.0124 13.6422C39.8657 12.4383 41.0097 11.4697 42.3379 10.8266C43.6661 10.1835 45.1354 9.88671 46.6091 9.96394C48.0828 10.0412 49.513 10.4899 50.7667 11.2683C52.0204 12.0467 53.0569 13.1296 53.7797 14.4162C54.5025 15.7027 54.8882 17.1512 54.9008 18.6269C54.9135 20.1025 54.5527 21.5574 53.8521 22.8562L68.4258 23.62C69.088 23.6547 69.7092 23.951 70.1529 24.4437C70.5965 24.9365 70.8263 25.5853 70.7916 26.2474L70.0934 39.5697C68.7946 38.8698 67.3399 38.5096 65.8645 38.5228C64.3892 38.5359 62.9411 38.9219 61.655 39.6448C60.3688 40.3677 59.2863 41.4041 58.5082 42.6576C57.7301 43.9112 57.2815 45.3411 57.2043 46.8145C57.1271 48.2879 57.4237 49.7568 58.0666 51.0848C58.7094 52.4128 59.6776 53.5567 60.8811 54.4101C62.0847 55.2635 63.4845 55.7987 64.9504 55.966C66.4163 56.1333 67.9006 55.9272 69.2655 55.3668L68.5673 68.6891C68.5326 69.3513 68.2363 69.9725 67.7436 70.4162C67.2508 70.8598 66.602 71.0896 65.9399 71.0549L21.0016 68.6998Z" fill="#F9A51D"/>
<path d="M21.0016 68.6998C20.3394 68.6651 19.7182 68.3688 19.2745 67.876C18.8309 67.3833 18.6011 66.7345 18.6358 66.0724L19.334 52.75C17.9692 53.3104 16.4848 53.5165 15.0189 53.3492C13.553 53.182 12.1532 52.6467 10.9497 51.7933C9.74612 50.9399 8.77792 49.796 8.13508 48.468C7.49224 47.14 7.19564 45.6711 7.27286 44.1977C7.35007 42.7243 7.7986 41.2944 8.57673 40.0408C9.35486 38.7873 10.4373 37.7509 11.7235 37.028C13.0096 36.3051 14.4577 35.9191 15.9331 35.906C17.4084 35.8929 18.8631 36.253 20.1619 36.9529L20.8601 23.6306C20.8948 22.9685 21.1911 22.3472 21.6839 21.9036C22.1766 21.4599 22.8254 21.2302 23.4875 21.2649L38.0581 22.0285C37.4971 20.6636 37.2904 19.1789 37.4572 17.7127C37.6241 16.2464 38.1591 14.8462 39.0124 13.6422C39.8657 12.4383 41.0097 11.4697 42.3379 10.8266C43.6661 10.1835 45.1354 9.88671 46.6091 9.96394C48.0828 10.0412 49.513 10.4899 50.7667 11.2683C52.0204 12.0467 53.0569 13.1296 53.7797 14.4162C54.5025 15.7027 54.8882 17.1512 54.9008 18.6269C54.9135 20.1025 54.5527 21.5574 53.8521 22.8562L68.4258 23.62C69.088 23.6547 69.7092 23.951 70.1529 24.4437C70.5965 24.9365 70.8263 25.5853 70.7916 26.2474L70.0934 39.5697C68.7946 38.8698 67.3399 38.5096 65.8645 38.5228C64.3892 38.5359 62.9411 38.9219 61.655 39.6448C60.3688 40.3677 59.2863 41.4041 58.5082 42.6576C57.7301 43.9112 57.2815 45.3411 57.2043 46.8145C57.1271 48.2879 57.4237 49.7568 58.0666 51.0848C58.7094 52.4128 59.6776 53.5567 60.8811 54.4101C62.0847 55.2635 63.4845 55.7987 64.9504 55.966C66.4163 56.1333 67.9006 55.9272 69.2655 55.3668L68.5673 68.6892C68.5326 69.3513 68.2363 69.9725 67.7436 70.4162C67.2508 70.8598 66.602 71.0896 65.9399 71.0549L21.0016 68.6998Z" stroke="#F9A51D" stroke-width="3" stroke-linecap="round" stroke-linejoin="round"/>
</svg>
