<svg width="49" height="49" viewBox="0 0 49 49" fill="none" xmlns="http://www.w3.org/2000/svg">
<g clip-path="url(#clip0_173_7046)">
<path opacity="0.2" d="M16.833 39.5V18.5H7.83301C7.43518 18.5 7.05365 18.658 6.77235 18.9393C6.49104 19.2206 6.33301 19.6022 6.33301 20V39.5H16.833Z" fill="#F9A51D"/>
<path opacity="0.2" d="M31.833 39.5V26H40.833C41.2308 26 41.6124 26.158 41.8937 26.4393C42.175 26.7206 42.333 27.1022 42.333 27.5V39.5H31.833Z" fill="#F9A51D"/>
<path d="M6.33301 39.5V20C6.33301 19.6022 6.49104 19.2206 6.77235 18.9393C7.05365 18.658 7.43518 18.5 7.83301 18.5H16.833" stroke="#F9A51D" stroke-width="2" stroke-linecap="round" stroke-linejoin="round"/>
<path d="M16.833 39.5V11C16.833 10.6022 16.991 10.2206 17.2723 9.93934C17.5537 9.65804 17.9352 9.5 18.333 9.5H30.333C30.7308 9.5 31.1124 9.65804 31.3937 9.93934C31.675 10.2206 31.833 10.6022 31.833 11V39.5" stroke="#F9A51D" stroke-width="2" stroke-linecap="round" stroke-linejoin="round"/>
<path d="M42.333 39.5V27.5C42.333 27.1022 42.175 26.7206 41.8937 26.4393C41.6124 26.158 41.2308 26 40.833 26H31.833" stroke="#F9A51D" stroke-width="2" stroke-linecap="round" stroke-linejoin="round"/>
<path d="M22.833 19.25L25.083 18.5V26" stroke="#F9A51D" stroke-width="2" stroke-linecap="round" stroke-linejoin="round"/>
<path d="M3.33301 39.5H45.333" stroke="#F9A51D" stroke-width="2" stroke-linecap="round" stroke-linejoin="round"/>
</g>
<defs>
<clipPath id="clip0_173_7046">
<rect width="48" height="48" fill="white" transform="translate(0.333008 0.5)"/>
</clipPath>
</defs>
</svg>
