<svg width="48" height="48" viewBox="0 0 48 48" fill="none" xmlns="http://www.w3.org/2000/svg">
<g clip-path="url(#clip0_141_3787)">
<path opacity="0.2" d="M34.5 22.5V34.0594C34.4998 34.4567 34.342 34.8377 34.0613 35.1188L27.6206 41.5594C27.4235 41.756 27.1756 41.8939 26.9046 41.9577C26.6336 42.0214 26.3502 42.0085 26.0862 41.9204C25.8221 41.8322 25.5878 41.6723 25.4094 41.4585C25.231 41.2448 25.1157 40.9856 25.0763 40.71L24 33L34.5 22.5Z" fill="#3B82F6"/>
<path opacity="0.2" d="M25.5 13.5H13.9406C13.5433 13.5002 13.1623 13.658 12.8812 13.9387L6.44062 20.3794C6.24398 20.5765 6.10606 20.8244 6.0423 21.0954C5.97855 21.3664 5.99147 21.6498 6.07963 21.9138C6.16778 22.1779 6.32769 22.4122 6.54145 22.5906C6.75522 22.769 7.0144 22.8843 7.28999 22.9237L15 24L25.5 13.5Z" fill="#3B82F6"/>
<path opacity="0.2" d="M17.73 35.2163C17.0044 36.8081 14.5594 40.5 7.5 40.5C7.5 33.4406 11.1919 30.9956 12.7838 30.27L17.73 35.2163Z" fill="#3B82F6"/>
<path d="M35.8331 21.1668C40.3331 16.6668 40.6144 11.3137 40.4738 8.92679C40.4504 8.563 40.2953 8.22018 40.0375 7.96241C39.7797 7.70464 39.4369 7.54956 39.0731 7.52617C36.6862 7.38554 31.3369 7.66304 26.8331 12.1668L15 23.9999L24 32.9999L35.8331 21.1668Z" stroke="#3B82F6" stroke-width="2" stroke-linecap="round" stroke-linejoin="round"/>
<path d="M25.5 13.5H13.9406C13.5433 13.5002 13.1623 13.658 12.8812 13.9387L6.44062 20.3794C6.24398 20.5765 6.10606 20.8244 6.0423 21.0954C5.97855 21.3664 5.99147 21.6498 6.07963 21.9138C6.16778 22.1779 6.32769 22.4122 6.54145 22.5906C6.75522 22.769 7.0144 22.8843 7.28999 22.9238L15 24" stroke="#3B82F6" stroke-width="2" stroke-linecap="round" stroke-linejoin="round"/>
<path d="M34.5 22.5V34.0594C34.4998 34.4567 34.342 34.8377 34.0613 35.1188L27.6206 41.5594C27.4235 41.756 27.1756 41.8939 26.9046 41.9577C26.6336 42.0214 26.3502 42.0085 26.0862 41.9204C25.8221 41.8322 25.5878 41.6723 25.4094 41.4585C25.231 41.2448 25.1157 40.9856 25.0763 40.71L24 33" stroke="#3B82F6" stroke-width="2" stroke-linecap="round" stroke-linejoin="round"/>
<path d="M17.73 35.2163C17.0044 36.8081 14.5594 40.5 7.5 40.5C7.5 33.4406 11.1919 30.9956 12.7838 30.27" stroke="#3B82F6" stroke-width="2" stroke-linecap="round" stroke-linejoin="round"/>
</g>
<defs>
<clipPath id="clip0_141_3787">
<rect width="48" height="48" fill="white"/>
</clipPath>
</defs>
</svg>
