<svg width="48" height="48" viewBox="0 0 48 48" fill="none" xmlns="http://www.w3.org/2000/svg">
<g clip-path="url(#clip0_421_7156)">
<path opacity="0.2" d="M40.5 21V10.5C40.5 10.1022 40.342 9.72064 40.0607 9.43934C39.7794 9.15804 39.3978 9 39 9H9C8.60218 9 8.22064 9.15804 7.93934 9.43934C7.65804 9.72064 7.5 10.1022 7.5 10.5V21C7.5 39 24 43.5 24 43.5C24 43.5 40.5 39 40.5 21Z" fill="url(#paint0_linear_421_7156)"/>
<path d="M40.5 21V10.5C40.5 10.1022 40.342 9.72064 40.0607 9.43934C39.7794 9.15804 39.3978 9 39 9H9C8.60218 9 8.22064 9.15804 7.93934 9.43934C7.65804 9.72064 7.5 10.1022 7.5 10.5V21C7.5 39 24 43.5 24 43.5C24 43.5 40.5 39 40.5 21Z" stroke="url(#paint1_linear_421_7156)" stroke-width="2" stroke-linecap="round" stroke-linejoin="round"/>
<path d="M16.5 25.5L21 30L31.5 19.5" stroke="url(#paint2_linear_421_7156)" stroke-width="2" stroke-linecap="round" stroke-linejoin="round"/>
</g>
<defs>
<linearGradient id="paint0_linear_421_7156" x1="7.5" y1="26.25" x2="40.5" y2="26.25" gradientUnits="userSpaceOnUse">
<stop stop-color="#3B82F6"/>
<stop offset="1" stop-color="#114FD7"/>
</linearGradient>
<linearGradient id="paint1_linear_421_7156" x1="7.5" y1="26.25" x2="40.5" y2="26.25" gradientUnits="userSpaceOnUse">
<stop stop-color="#3B82F6"/>
<stop offset="1" stop-color="#114FD7"/>
</linearGradient>
<linearGradient id="paint2_linear_421_7156" x1="16.5" y1="24.75" x2="31.5" y2="24.75" gradientUnits="userSpaceOnUse">
<stop stop-color="#3B82F6"/>
<stop offset="1" stop-color="#114FD7"/>
</linearGradient>
<clipPath id="clip0_421_7156">
<rect width="48" height="48" fill="white"/>
</clipPath>
</defs>
</svg>
