<svg width="49" height="48" viewBox="0 0 49 48" fill="none" xmlns="http://www.w3.org/2000/svg">
<g clip-path="url(#clip0_624_7641)">
<path d="M17.166 43.5C18.8229 43.5 20.166 42.1569 20.166 40.5C20.166 38.8431 18.8229 37.5 17.166 37.5C15.5092 37.5 14.166 38.8431 14.166 40.5C14.166 42.1569 15.5092 43.5 17.166 43.5Z" fill="url(#paint0_linear_624_7641)"/>
<path d="M36.666 43.5C38.3229 43.5 39.666 42.1569 39.666 40.5C39.666 38.8431 38.3229 37.5 36.666 37.5C35.0092 37.5 33.666 38.8431 33.666 40.5C33.666 42.1569 35.0092 43.5 36.666 43.5Z" fill="url(#paint1_linear_624_7641)"/>
<path d="M3.66602 6H8.16602L15.0566 30.8025C15.232 31.4342 15.6094 31.991 16.1312 32.3879C16.653 32.7847 17.2905 32.9997 17.946 33H36.4785C37.1344 33.0001 37.7722 32.7853 38.2944 32.3884C38.8166 31.9915 39.1943 31.4345 39.3698 30.8025L44.166 13.5H10.2491" stroke="url(#paint2_linear_624_7641)" stroke-width="2" stroke-linecap="round" stroke-linejoin="round"/>
</g>
<defs>
<linearGradient id="paint0_linear_624_7641" x1="14.166" y1="40.5" x2="20.166" y2="40.5" gradientUnits="userSpaceOnUse">
<stop stop-color="#3B82F6"/>
<stop offset="1" stop-color="#114FD7"/>
</linearGradient>
<linearGradient id="paint1_linear_624_7641" x1="33.666" y1="40.5" x2="39.666" y2="40.5" gradientUnits="userSpaceOnUse">
<stop stop-color="#3B82F6"/>
<stop offset="1" stop-color="#114FD7"/>
</linearGradient>
<linearGradient id="paint2_linear_624_7641" x1="3.66602" y1="19.5" x2="44.166" y2="19.5" gradientUnits="userSpaceOnUse">
<stop stop-color="#3B82F6"/>
<stop offset="1" stop-color="#114FD7"/>
</linearGradient>
<clipPath id="clip0_624_7641">
<rect width="48" height="48" fill="white" transform="translate(0.666016)"/>
</clipPath>
</defs>
</svg>
