<svg width="48" height="49" viewBox="0 0 48 49" fill="none" xmlns="http://www.w3.org/2000/svg">
<path opacity="0.2" d="M45 20L24 42.5L15 20L24 8H34.5L45 20Z" fill="url(#paint0_linear_767_7372)"/>
<path d="M46.1255 19.0119L35.6255 7.01187C35.4851 6.85153 35.3122 6.72294 35.1182 6.63468C34.9242 6.54642 34.7136 6.5005 34.5005 6.5H13.5005C13.2874 6.5005 13.0768 6.54642 12.8829 6.63468C12.6889 6.72294 12.5159 6.85153 12.3755 7.01187L1.87553 19.0119C1.63057 19.2915 1.49821 19.6522 1.50409 20.0239C1.50998 20.3957 1.65371 20.752 1.9074 21.0238L22.9074 43.5238C23.0478 43.6742 23.2176 43.7942 23.4063 43.8762C23.595 43.9583 23.7985 44.0006 24.0043 44.0006C24.21 44.0006 24.4136 43.9583 24.6023 43.8762C24.791 43.7942 24.9608 43.6742 25.1012 43.5238L46.1012 21.0238C46.3538 20.751 46.4962 20.3942 46.5007 20.0225C46.5052 19.6508 46.3715 19.2906 46.1255 19.0119ZM41.6949 18.5H33.7505L27.0005 9.5H33.8199L41.6949 18.5ZM13.9843 21.5L19.6337 35.6244L6.4524 21.5H13.9843ZM30.7843 21.5L24.0005 38.4613L17.2168 21.5H30.7843ZM18.0005 18.5L24.0005 10.4994L30.0005 18.5H18.0005ZM34.0168 21.5H41.5487L28.3674 35.6244L34.0168 21.5ZM14.1812 9.5H21.0005L14.2505 18.5H6.30615L14.1812 9.5Z" fill="url(#paint1_linear_767_7372)"/>
<defs>
<linearGradient id="paint0_linear_767_7372" x1="15" y1="25.25" x2="45" y2="25.25" gradientUnits="userSpaceOnUse">
<stop stop-color="#3B82F6"/>
<stop offset="1" stop-color="#114FD7"/>
</linearGradient>
<linearGradient id="paint1_linear_767_7372" x1="1.50391" y1="25.2503" x2="46.5008" y2="25.2503" gradientUnits="userSpaceOnUse">
<stop stop-color="#3B82F6"/>
<stop offset="1" stop-color="#114FD7"/>
</linearGradient>
</defs>
</svg>
