<svg width="81" height="81" viewBox="0 0 81 81" fill="none" xmlns="http://www.w3.org/2000/svg">
<g clip-path="url(#clip0_61_1220)">
<path opacity="0.2" d="M9.73594 58.8093C8.48639 55.2562 7.86359 51.5131 7.89532 47.7468C8.03282 29.875 22.8109 15.3406 40.7078 15.5C45.8784 15.5541 50.9615 16.8402 55.5357 19.2514C60.1099 21.6627 64.0434 25.1298 67.0099 29.365C69.9764 33.6003 71.8904 38.4818 72.5933 43.6046C73.2962 48.7275 72.7677 53.9441 71.0516 58.8218C70.8807 59.3128 70.561 59.7382 70.137 60.039C69.713 60.3398 69.2058 60.5009 68.6859 60.5H12.1016C11.5808 60.4977 11.0735 60.3339 10.6498 60.031C10.226 59.7282 9.90674 59.3013 9.73594 58.8093Z" fill="#024AB0"/>
<path d="M37.8953 50.5L67.8953 20.5" stroke="#024AB0" stroke-width="3" stroke-linecap="round" stroke-linejoin="round"/>
<path d="M18.0328 50.5C17.9412 49.6699 17.8953 48.8353 17.8953 48C17.8983 44.4293 18.7504 40.9104 20.3814 37.7338C22.0123 34.5573 24.3752 31.8141 27.2752 29.7307C30.1752 27.6473 33.5291 26.2834 37.06 25.7515C40.591 25.2197 44.1978 25.5352 47.5828 26.6719" stroke="#024AB0" stroke-width="3" stroke-linecap="round" stroke-linejoin="round"/>
<path d="M69.339 33.2C71.3436 37.1331 72.5289 41.4322 72.8233 45.8368C73.1176 50.2415 72.5149 54.6601 71.0515 58.825C70.8806 59.3159 70.5609 59.7414 70.1369 60.0421C69.7129 60.3429 69.2057 60.504 68.6858 60.5031H12.1015C11.5807 60.5008 11.0734 60.337 10.6497 60.0342C10.2259 59.7313 9.90664 59.3045 9.73585 58.8125C8.48594 55.2584 7.86313 51.5141 7.89522 47.7468C8.03272 29.875 22.8108 15.3406 40.7077 15.5C45.752 15.5404 50.7171 16.7582 55.2077 19.0562" stroke="#024AB0" stroke-width="3" stroke-linecap="round" stroke-linejoin="round"/>
</g>
<defs>
<clipPath id="clip0_61_1220">
<rect width="80" height="80" fill="white" transform="translate(0.395264 0.5)"/>
</clipPath>
</defs>
</svg>
