<svg width="370" height="237" viewBox="0 0 370 237" fill="none" xmlns="http://www.w3.org/2000/svg">
<g clip-path="url(#clip0_332_6113)">
<mask id="mask0_332_6113" style="mask-type:alpha" maskUnits="userSpaceOnUse" x="-132" y="0" width="502" height="436">
<rect width="502" height="436" transform="matrix(-1 0 0 1 370 0)" fill="url(#paint0_linear_332_6113)"/>
</mask>
<g mask="url(#mask0_332_6113)">
<path d="M19.3092 3.99095H23.3001V0H23.9273V3.99095H27.9183V4.56109H23.9273V8.55204H23.3001V4.56109H19.3092V3.99095Z" fill="white"/>
<path d="M19.3092 32.4978H23.3001V28.5068H23.9273V32.4978H27.9183V33.0679H23.9273V37.0589H23.3001V33.0679H19.3092V32.4978Z" fill="white"/>
<path d="M19.3092 61.0046H23.3001V57.0136H23.9273V61.0046H27.9183V61.5747H23.9273V65.5657H23.3001V61.5747H19.3092V61.0046Z" fill="white"/>
<path d="M19.3092 89.5114H23.3001V85.5204H23.9273V89.5114H27.9183V90.0815H23.9273V94.0725H23.3001V90.0815H19.3092V89.5114Z" fill="white"/>
<path d="M19.3092 118.018H23.3001V114.027H23.9273V118.018H27.9183V118.588H23.9273V122.579H23.3001V118.588H19.3092V118.018Z" fill="white"/>
<path d="M19.3092 146.525H23.3001V142.534H23.9273V146.525H27.9183V147.095H23.9273V151.086H23.3001V147.095H19.3092V146.525Z" fill="white"/>
<path d="M19.3092 175.032H23.3001V171.041H23.9273V175.032H27.9183V175.602H23.9273V179.593H23.3001V175.602H19.3092V175.032Z" fill="white"/>
<path d="M19.3092 203.539H23.3001V199.548H23.9273V203.539H27.9183V204.109H23.9273V208.1H23.3001V204.109H19.3092V203.539Z" fill="white"/>
<path d="M19.3092 232.045H23.3001V228.055H23.9273V232.045H27.9183V232.616H23.9273V236.607H23.3001V232.616H19.3092V232.045Z" fill="white"/>
<path d="M47.816 3.99095H51.8069V0H52.4341V3.99095H56.4251V4.56109H52.4341V8.55204H51.8069V4.56109H47.816V3.99095Z" fill="white"/>
<path d="M47.816 32.4978H51.8069V28.5068H52.4341V32.4978H56.4251V33.0679H52.4341V37.0589H51.8069V33.0679H47.816V32.4978Z" fill="white"/>
<path d="M47.816 61.0046H51.8069V57.0136H52.4341V61.0046H56.4251V61.5747H52.4341V65.5657H51.8069V61.5747H47.816V61.0046Z" fill="white"/>
<path d="M47.816 89.5114H51.8069V85.5204H52.4341V89.5114H56.4251V90.0815H52.4341V94.0725H51.8069V90.0815H47.816V89.5114Z" fill="white"/>
<path d="M47.816 118.018H51.8069V114.027H52.4341V118.018H56.4251V118.588H52.4341V122.579H51.8069V118.588H47.816V118.018Z" fill="white"/>
<path d="M47.816 146.525H51.8069V142.534H52.4341V146.525H56.4251V147.095H52.4341V151.086H51.8069V147.095H47.816V146.525Z" fill="white"/>
<path d="M47.816 175.032H51.8069V171.041H52.4341V175.032H56.4251V175.602H52.4341V179.593H51.8069V175.602H47.816V175.032Z" fill="white"/>
<path d="M47.816 203.539H51.8069V199.548H52.4341V203.539H56.4251V204.109H52.4341V208.1H51.8069V204.109H47.816V203.539Z" fill="white"/>
<path d="M47.816 232.045H51.8069V228.055H52.4341V232.045H56.4251V232.616H52.4341V236.607H51.8069V232.616H47.816V232.045Z" fill="white"/>
<path d="M76.3228 3.99095H80.3137V0H80.9409V3.99095H84.9319V4.56109H80.9409V8.55204H80.3137V4.56109H76.3228V3.99095Z" fill="white"/>
<path d="M76.3228 32.4978H80.3137V28.5068H80.9409V32.4978H84.9319V33.0679H80.9409V37.0589H80.3137V33.0679H76.3228V32.4978Z" fill="white"/>
<path d="M76.3228 61.0046H80.3137V57.0136H80.9409V61.0046H84.9319V61.5747H80.9409V65.5657H80.3137V61.5747H76.3228V61.0046Z" fill="white"/>
<path d="M76.3228 89.5114H80.3137V85.5204H80.9409V89.5114H84.9319V90.0815H80.9409V94.0725H80.3137V90.0815H76.3228V89.5114Z" fill="white"/>
<path d="M76.3228 118.018H80.3137V114.027H80.9409V118.018H84.9319V118.588H80.9409V122.579H80.3137V118.588H76.3228V118.018Z" fill="white"/>
<path d="M76.3228 146.525H80.3137V142.534H80.9409V146.525H84.9319V147.095H80.9409V151.086H80.3137V147.095H76.3228V146.525Z" fill="white"/>
<path d="M76.3228 175.032H80.3137V171.041H80.9409V175.032H84.9319V175.602H80.9409V179.593H80.3137V175.602H76.3228V175.032Z" fill="white"/>
<path d="M76.3228 203.539H80.3137V199.548H80.9409V203.539H84.9319V204.109H80.9409V208.1H80.3137V204.109H76.3228V203.539Z" fill="white"/>
<path d="M76.3228 232.045H80.3137V228.055H80.9409V232.045H84.9319V232.616H80.9409V236.607H80.3137V232.616H76.3228V232.045Z" fill="white"/>
<path d="M104.83 3.99095H108.821V0H109.448V3.99095H113.439V4.56109H109.448V8.55204H108.821V4.56109H104.83V3.99095Z" fill="white"/>
<path d="M104.83 32.4978H108.821V28.5068H109.448V32.4978H113.439V33.0679H109.448V37.0589H108.821V33.0679H104.83V32.4978Z" fill="white"/>
<path d="M104.83 61.0046H108.821V57.0136H109.448V61.0046H113.439V61.5747H109.448V65.5657H108.821V61.5747H104.83V61.0046Z" fill="white"/>
<path d="M104.83 89.5114H108.821V85.5204H109.448V89.5114H113.439V90.0815H109.448V94.0725H108.821V90.0815H104.83V89.5114Z" fill="white"/>
<path d="M104.83 118.018H108.821V114.027H109.448V118.018H113.439V118.588H109.448V122.579H108.821V118.588H104.83V118.018Z" fill="white"/>
<path d="M104.83 146.525H108.821V142.534H109.448V146.525H113.439V147.095H109.448V151.086H108.821V147.095H104.83V146.525Z" fill="white"/>
<path d="M104.83 175.032H108.821V171.041H109.448V175.032H113.439V175.602H109.448V179.593H108.821V175.602H104.83V175.032Z" fill="white"/>
<path d="M104.83 203.539H108.821V199.548H109.448V203.539H113.439V204.109H109.448V208.1H108.821V204.109H104.83V203.539Z" fill="white"/>
<path d="M104.83 232.045H108.821V228.055H109.448V232.045H113.439V232.616H109.448V236.607H108.821V232.616H104.83V232.045Z" fill="white"/>
<path d="M133.336 3.99095H137.327V0H137.955V3.99095H141.946V4.56109H137.955V8.55204H137.327V4.56109H133.336V3.99095Z" fill="white"/>
<path d="M133.336 32.4978H137.327V28.5068H137.955V32.4978H141.946V33.0679H137.955V37.0589H137.327V33.0679H133.336V32.4978Z" fill="white"/>
<path d="M133.336 61.0046H137.327V57.0136H137.955V61.0046H141.946V61.5747H137.955V65.5657H137.327V61.5747H133.336V61.0046Z" fill="white"/>
<path d="M133.336 89.5114H137.327V85.5204H137.955V89.5114H141.946V90.0815H137.955V94.0725H137.327V90.0815H133.336V89.5114Z" fill="white"/>
<path d="M133.336 118.018H137.327V114.027H137.955V118.018H141.946V118.588H137.955V122.579H137.327V118.588H133.336V118.018Z" fill="white"/>
<path d="M133.336 146.525H137.327V142.534H137.955V146.525H141.946V147.095H137.955V151.086H137.327V147.095H133.336V146.525Z" fill="white"/>
<path d="M133.336 175.032H137.327V171.041H137.955V175.032H141.946V175.602H137.955V179.593H137.327V175.602H133.336V175.032Z" fill="white"/>
<path d="M133.336 203.539H137.327V199.548H137.955V203.539H141.946V204.109H137.955V208.1H137.327V204.109H133.336V203.539Z" fill="white"/>
<path d="M133.336 232.045H137.327V228.055H137.955V232.045H141.946V232.616H137.955V236.607H137.327V232.616H133.336V232.045Z" fill="white"/>
<path d="M161.843 3.99095H165.834V0H166.461V3.99095H170.452V4.56109H166.461V8.55204H165.834V4.56109H161.843V3.99095Z" fill="white"/>
<path d="M161.843 32.4978H165.834V28.5068H166.461V32.4978H170.452V33.0679H166.461V37.0589H165.834V33.0679H161.843V32.4978Z" fill="white"/>
<path d="M161.843 61.0046H165.834V57.0136H166.461V61.0046H170.452V61.5747H166.461V65.5657H165.834V61.5747H161.843V61.0046Z" fill="white"/>
<path d="M161.843 89.5114H165.834V85.5204H166.461V89.5114H170.452V90.0815H166.461V94.0725H165.834V90.0815H161.843V89.5114Z" fill="white"/>
<path d="M161.843 118.018H165.834V114.027H166.461V118.018H170.452V118.588H166.461V122.579H165.834V118.588H161.843V118.018Z" fill="white"/>
<path d="M161.843 146.525H165.834V142.534H166.461V146.525H170.452V147.095H166.461V151.086H165.834V147.095H161.843V146.525Z" fill="white"/>
<path d="M161.843 175.032H165.834V171.041H166.461V175.032H170.452V175.602H166.461V179.593H165.834V175.602H161.843V175.032Z" fill="white"/>
<path d="M161.843 203.539H165.834V199.548H166.461V203.539H170.452V204.109H166.461V208.1H165.834V204.109H161.843V203.539Z" fill="white"/>
<path d="M161.843 232.045H165.834V228.055H166.461V232.045H170.452V232.616H166.461V236.607H165.834V232.616H161.843V232.045Z" fill="white"/>
<path d="M190.35 3.99095H194.341V0H194.968V3.99095H198.959V4.56109H194.968V8.55204H194.341V4.56109H190.35V3.99095Z" fill="white"/>
<path d="M190.35 32.4978H194.341V28.5068H194.968V32.4978H198.959V33.0679H194.968V37.0589H194.341V33.0679H190.35V32.4978Z" fill="white"/>
<path d="M190.35 61.0046H194.341V57.0136H194.968V61.0046H198.959V61.5747H194.968V65.5657H194.341V61.5747H190.35V61.0046Z" fill="white"/>
<path d="M190.35 89.5114H194.341V85.5204H194.968V89.5114H198.959V90.0815H194.968V94.0725H194.341V90.0815H190.35V89.5114Z" fill="white"/>
<path d="M190.35 118.018H194.341V114.027H194.968V118.018H198.959V118.588H194.968V122.579H194.341V118.588H190.35V118.018Z" fill="white"/>
<path d="M190.35 146.525H194.341V142.534H194.968V146.525H198.959V147.095H194.968V151.086H194.341V147.095H190.35V146.525Z" fill="white"/>
<path d="M190.35 175.032H194.341V171.041H194.968V175.032H198.959V175.602H194.968V179.593H194.341V175.602H190.35V175.032Z" fill="white"/>
<path d="M190.35 203.539H194.341V199.548H194.968V203.539H198.959V204.109H194.968V208.1H194.341V204.109H190.35V203.539Z" fill="white"/>
<path d="M190.35 232.045H194.341V228.055H194.968V232.045H198.959V232.616H194.968V236.607H194.341V232.616H190.35V232.045Z" fill="white"/>
<path d="M218.857 3.99095H222.848V0H223.475V3.99095H227.466V4.56109H223.475V8.55204H222.848V4.56109H218.857V3.99095Z" fill="white"/>
<path d="M218.857 32.4978H222.848V28.5068H223.475V32.4978H227.466V33.0679H223.475V37.0589H222.848V33.0679H218.857V32.4978Z" fill="white"/>
<path d="M218.857 61.0046H222.848V57.0136H223.475V61.0046H227.466V61.5747H223.475V65.5657H222.848V61.5747H218.857V61.0046Z" fill="white"/>
<path d="M218.857 89.5114H222.848V85.5204H223.475V89.5114H227.466V90.0815H223.475V94.0725H222.848V90.0815H218.857V89.5114Z" fill="white"/>
<path d="M218.857 118.018H222.848V114.027H223.475V118.018H227.466V118.588H223.475V122.579H222.848V118.588H218.857V118.018Z" fill="white"/>
<path d="M218.857 146.525H222.848V142.534H223.475V146.525H227.466V147.095H223.475V151.086H222.848V147.095H218.857V146.525Z" fill="white"/>
<path d="M218.857 175.032H222.848V171.041H223.475V175.032H227.466V175.602H223.475V179.593H222.848V175.602H218.857V175.032Z" fill="white"/>
<path d="M218.857 203.539H222.848V199.548H223.475V203.539H227.466V204.109H223.475V208.1H222.848V204.109H218.857V203.539Z" fill="white"/>
<path d="M218.857 232.045H222.848V228.055H223.475V232.045H227.466V232.616H223.475V236.607H222.848V232.616H218.857V232.045Z" fill="white"/>
<path d="M247.364 3.99095H251.355V0H251.982V3.99095H255.973V4.56109H251.982V8.55204H251.355V4.56109H247.364V3.99095Z" fill="white"/>
<path d="M247.364 32.4978H251.355V28.5068H251.982V32.4978H255.973V33.0679H251.982V37.0589H251.355V33.0679H247.364V32.4978Z" fill="white"/>
<path d="M247.364 61.0046H251.355V57.0136H251.982V61.0046H255.973V61.5747H251.982V65.5657H251.355V61.5747H247.364V61.0046Z" fill="white"/>
<path d="M247.364 89.5114H251.355V85.5204H251.982V89.5114H255.973V90.0815H251.982V94.0725H251.355V90.0815H247.364V89.5114Z" fill="white"/>
<path d="M247.364 118.018H251.355V114.027H251.982V118.018H255.973V118.588H251.982V122.579H251.355V118.588H247.364V118.018Z" fill="white"/>
<path d="M247.364 146.525H251.355V142.534H251.982V146.525H255.973V147.095H251.982V151.086H251.355V147.095H247.364V146.525Z" fill="white"/>
<path d="M247.364 175.032H251.355V171.041H251.982V175.032H255.973V175.602H251.982V179.593H251.355V175.602H247.364V175.032Z" fill="white"/>
<path d="M247.364 203.539H251.355V199.548H251.982V203.539H255.973V204.109H251.982V208.1H251.355V204.109H247.364V203.539Z" fill="white"/>
<path d="M247.364 232.045H251.355V228.055H251.982V232.045H255.973V232.616H251.982V236.607H251.355V232.616H247.364V232.045Z" fill="white"/>
<path d="M275.87 3.99095H279.861V0H280.489V3.99095H284.48V4.56109H280.489V8.55204H279.861V4.56109H275.87V3.99095Z" fill="white"/>
<path d="M275.87 32.4978H279.861V28.5068H280.489V32.4978H284.48V33.0679H280.489V37.0589H279.861V33.0679H275.87V32.4978Z" fill="white"/>
<path d="M275.87 61.0046H279.861V57.0136H280.489V61.0046H284.48V61.5747H280.489V65.5657H279.861V61.5747H275.87V61.0046Z" fill="white"/>
<path d="M275.87 89.5114H279.861V85.5204H280.489V89.5114H284.48V90.0815H280.489V94.0725H279.861V90.0815H275.87V89.5114Z" fill="white"/>
<path d="M275.87 118.018H279.861V114.027H280.489V118.018H284.48V118.588H280.489V122.579H279.861V118.588H275.87V118.018Z" fill="white"/>
<path d="M275.87 146.525H279.861V142.534H280.489V146.525H284.48V147.095H280.489V151.086H279.861V147.095H275.87V146.525Z" fill="white"/>
<path d="M275.87 175.032H279.861V171.041H280.489V175.032H284.48V175.602H280.489V179.593H279.861V175.602H275.87V175.032Z" fill="white"/>
<path d="M275.87 203.539H279.861V199.548H280.489V203.539H284.48V204.109H280.489V208.1H279.861V204.109H275.87V203.539Z" fill="white"/>
<path d="M275.87 232.045H279.861V228.055H280.489V232.045H284.48V232.616H280.489V236.607H279.861V232.616H275.87V232.045Z" fill="white"/>
<path d="M304.377 3.99095H308.368V0H308.995V3.99095H312.986V4.56109H308.995V8.55204H308.368V4.56109H304.377V3.99095Z" fill="white"/>
<path d="M304.377 32.4978H308.368V28.5068H308.995V32.4978H312.986V33.0679H308.995V37.0589H308.368V33.0679H304.377V32.4978Z" fill="white"/>
<path d="M304.377 61.0046H308.368V57.0136H308.995V61.0046H312.986V61.5747H308.995V65.5657H308.368V61.5747H304.377V61.0046Z" fill="white"/>
<path d="M304.377 89.5114H308.368V85.5204H308.995V89.5114H312.986V90.0815H308.995V94.0725H308.368V90.0815H304.377V89.5114Z" fill="white"/>
<path d="M304.377 118.018H308.368V114.027H308.995V118.018H312.986V118.588H308.995V122.579H308.368V118.588H304.377V118.018Z" fill="white"/>
<path d="M304.377 146.525H308.368V142.534H308.995V146.525H312.986V147.095H308.995V151.086H308.368V147.095H304.377V146.525Z" fill="white"/>
<path d="M304.377 175.032H308.368V171.041H308.995V175.032H312.986V175.602H308.995V179.593H308.368V175.602H304.377V175.032Z" fill="white"/>
<path d="M304.377 203.539H308.368V199.548H308.995V203.539H312.986V204.109H308.995V208.1H308.368V204.109H304.377V203.539Z" fill="white"/>
<path d="M304.377 232.045H308.368V228.055H308.995V232.045H312.986V232.616H308.995V236.607H308.368V232.616H304.377V232.045Z" fill="white"/>
<path d="M332.884 3.99095H336.875V0H337.502V3.99095H341.493V4.56109H337.502V8.55204H336.875V4.56109H332.884V3.99095Z" fill="white"/>
<path d="M332.884 32.4978H336.875V28.5068H337.502V32.4978H341.493V33.0679H337.502V37.0589H336.875V33.0679H332.884V32.4978Z" fill="white"/>
<path d="M332.884 61.0046H336.875V57.0136H337.502V61.0046H341.493V61.5747H337.502V65.5657H336.875V61.5747H332.884V61.0046Z" fill="white"/>
<path d="M332.884 89.5114H336.875V85.5204H337.502V89.5114H341.493V90.0815H337.502V94.0725H336.875V90.0815H332.884V89.5114Z" fill="white"/>
<path d="M332.884 118.018H336.875V114.027H337.502V118.018H341.493V118.588H337.502V122.579H336.875V118.588H332.884V118.018Z" fill="white"/>
<path d="M332.884 146.525H336.875V142.534H337.502V146.525H341.493V147.095H337.502V151.086H336.875V147.095H332.884V146.525Z" fill="white"/>
<path d="M332.884 175.032H336.875V171.041H337.502V175.032H341.493V175.602H337.502V179.593H336.875V175.602H332.884V175.032Z" fill="white"/>
<path d="M332.884 203.539H336.875V199.548H337.502V203.539H341.493V204.109H337.502V208.1H336.875V204.109H332.884V203.539Z" fill="white"/>
<path d="M332.884 232.045H336.875V228.055H337.502V232.045H341.493V232.616H337.502V236.607H336.875V232.616H332.884V232.045Z" fill="white"/>
<path d="M361.391 3.99095H365.382V0H366.009V3.99095H370V4.56109H366.009V8.55204H365.382V4.56109H361.391V3.99095Z" fill="white"/>
<path d="M361.391 32.4978H365.382V28.5068H366.009V32.4978H370V33.0679H366.009V37.0589H365.382V33.0679H361.391V32.4978Z" fill="white"/>
<path d="M361.391 61.0046H365.382V57.0136H366.009V61.0046H370V61.5747H366.009V65.5657H365.382V61.5747H361.391V61.0046Z" fill="white"/>
<path d="M361.391 89.5114H365.382V85.5204H366.009V89.5114H370V90.0815H366.009V94.0725H365.382V90.0815H361.391V89.5114Z" fill="white"/>
<path d="M361.391 118.018H365.382V114.027H366.009V118.018H370V118.588H366.009V122.579H365.382V118.588H361.391V118.018Z" fill="white"/>
<path d="M361.391 146.525H365.382V142.534H366.009V146.525H370V147.095H366.009V151.086H365.382V147.095H361.391V146.525Z" fill="white"/>
<path d="M361.391 175.032H365.382V171.041H366.009V175.032H370V175.602H366.009V179.593H365.382V175.602H361.391V175.032Z" fill="white"/>
<path d="M361.391 203.539H365.382V199.548H366.009V203.539H370V204.109H366.009V208.1H365.382V204.109H361.391V203.539Z" fill="white"/>
<path d="M361.391 232.045H365.382V228.055H366.009V232.045H370V232.616H366.009V236.607H365.382V232.616H361.391V232.045Z" fill="white"/>
</g>
</g>
<defs>
<linearGradient id="paint0_linear_332_6113" x1="0" y1="0" x2="502" y2="-4.5112e-05" gradientUnits="userSpaceOnUse">
<stop stop-color="white" stop-opacity="0"/>
<stop offset="1" stop-color="white"/>
</linearGradient>
<clipPath id="clip0_332_6113">
<rect width="502" height="436" fill="white" transform="matrix(-1 0 0 1 370 0)"/>
</clipPath>
</defs>
</svg>
