<svg width="747" height="775" viewBox="0 0 747 775" fill="none" xmlns="http://www.w3.org/2000/svg">
<g opacity="0.5">
<path opacity="0.8" d="M581.018 581.019C687.981 474.056 687.981 300.635 581.018 193.673C474.056 86.7103 300.635 86.7103 193.673 193.673C86.7103 300.635 86.7103 474.056 193.673 581.019C300.635 687.981 474.056 687.981 581.018 581.019Z" stroke="#F9A51D" stroke-width="0.5" stroke-miterlimit="10"/>
<path opacity="0.8" d="M571.263 571.263C672.838 469.688 672.838 305.003 571.263 203.428C469.688 101.853 305.003 101.853 203.428 203.428C101.853 305.003 101.853 469.688 203.428 571.263C305.003 672.838 469.688 672.838 571.263 571.263Z" stroke="#F9A51D" stroke-width="0.6562" stroke-miterlimit="10"/>
<path opacity="0.8" d="M387.348 633.628C523.368 633.628 633.634 523.362 633.634 387.342C633.634 251.322 523.368 141.056 387.348 141.056C251.328 141.056 141.062 251.322 141.062 387.342C141.062 523.362 251.328 633.628 387.348 633.628Z" stroke="#F9A51D" stroke-width="0.8125" stroke-miterlimit="10"/>
<path opacity="0.8" d="M387.348 619.832C515.749 619.832 619.839 515.743 619.839 387.342C619.839 258.941 515.749 154.852 387.348 154.852C258.948 154.852 154.858 258.941 154.858 387.342C154.858 515.743 258.948 619.832 387.348 619.832Z" stroke="#F9A51D" stroke-width="0.9688" stroke-miterlimit="10"/>
<path opacity="0.8" d="M541.984 541.984C627.389 456.58 627.389 318.112 541.984 232.707C456.58 147.302 318.112 147.302 232.707 232.707C147.302 318.112 147.302 456.58 232.707 541.984C318.112 627.389 456.58 627.389 541.984 541.984Z" stroke="#F9A51D" stroke-width="1.125" stroke-miterlimit="10"/>
<path opacity="0.8" d="M532.229 532.229C612.246 452.212 612.246 322.479 532.229 242.462C452.212 162.445 322.479 162.445 242.462 242.462C162.445 322.479 162.445 452.212 242.462 532.229C322.479 612.246 452.212 612.246 532.229 532.229Z" stroke="#F9A51D" stroke-width="1.2812" stroke-miterlimit="10"/>
<path opacity="0.8" d="M522.474 522.474C597.104 447.845 597.104 326.847 522.474 252.217C447.845 177.588 326.846 177.588 252.217 252.217C177.588 326.847 177.588 447.845 252.217 522.474C326.847 597.104 447.845 597.104 522.474 522.474Z" stroke="#F9A51D" stroke-width="1.4375" stroke-miterlimit="10"/>
<path opacity="0.8" d="M512.719 512.719C581.961 443.477 581.961 331.214 512.719 261.972C443.477 192.73 331.214 192.73 261.972 261.972C192.73 331.214 192.73 443.477 261.972 512.719C331.214 581.961 443.477 581.961 512.719 512.719Z" stroke="#F9A51D" stroke-width="1.5938" stroke-miterlimit="10"/>
<path opacity="0.8" d="M548.802 413.43C563.187 324.282 502.58 240.351 413.431 225.965C324.283 211.58 240.352 272.187 225.966 361.336C211.581 450.484 272.188 534.415 361.337 548.801C450.485 563.186 534.416 502.579 548.802 413.43Z" stroke="#F9A51D" stroke-width="1.75" stroke-miterlimit="10"/>
<path opacity="0.8" d="M387.348 537.056C470.033 537.056 537.063 470.026 537.063 387.341C537.063 304.656 470.033 237.626 387.348 237.626C304.663 237.626 237.634 304.656 237.634 387.341C237.634 470.026 304.663 537.056 387.348 537.056Z" stroke="#F9A51D" stroke-width="1.9062" stroke-miterlimit="10"/>
<path opacity="0.8" d="M483.454 483.454C536.533 430.375 536.533 344.317 483.454 291.238C430.375 238.158 344.317 238.158 291.237 291.238C238.158 344.317 238.158 430.375 291.237 483.454C344.317 536.533 430.375 536.533 483.454 483.454Z" stroke="#F9A51D" stroke-width="2.0625" stroke-miterlimit="10"/>
<path opacity="0.8" d="M473.685 473.685C521.369 426.001 521.369 348.69 473.685 301.006C426.001 253.322 348.69 253.322 301.006 301.006C253.322 348.69 253.322 426.001 301.006 473.685C348.69 521.369 426.001 521.369 473.685 473.685Z" stroke="#F9A51D" stroke-width="2.2188" stroke-miterlimit="10"/>
<path opacity="0.8" d="M463.93 463.93C506.226 421.634 506.226 353.058 463.93 310.761C421.633 268.465 353.057 268.465 310.761 310.761C268.465 353.058 268.465 421.634 310.761 463.93C353.058 506.226 421.633 506.226 463.93 463.93Z" stroke="#F9A51D" stroke-width="2.375" stroke-miterlimit="10"/>
<path opacity="0.8" d="M454.175 454.175C491.084 417.266 491.084 357.425 454.175 320.517C417.266 283.608 357.425 283.608 320.516 320.517C283.608 357.425 283.608 417.266 320.516 454.175C357.425 491.084 417.266 491.084 454.175 454.175Z" stroke="#F9A51D" stroke-width="2.5312" stroke-miterlimit="10"/>
<path opacity="0.8" d="M467.482 396.792C472.706 352.522 441.053 312.398 396.783 307.173C352.512 301.949 312.389 333.602 307.164 377.872C301.939 422.143 333.592 462.267 377.863 467.491C422.133 472.716 462.257 441.063 467.482 396.792Z" stroke="#F9A51D" stroke-width="2.6875" stroke-miterlimit="10"/>
<path opacity="0.8" d="M387.348 454.262C424.307 454.262 454.268 424.301 454.268 387.342C454.268 350.383 424.307 320.422 387.348 320.422C350.39 320.422 320.428 350.383 320.428 387.342C320.428 424.301 350.39 454.262 387.348 454.262Z" stroke="#F9A51D" stroke-width="2.8438" stroke-miterlimit="10"/>
<path opacity="0.8" d="M440.344 391.613C442.674 362.367 420.854 336.77 391.608 334.441C362.362 332.111 336.766 353.931 334.436 383.177C332.106 412.423 353.926 438.019 383.172 440.349C412.418 442.678 438.014 420.859 440.344 391.613Z" stroke="#F9A51D" stroke-width="3" stroke-miterlimit="10"/>
</g>
</svg>
