<svg width="274" height="291" viewBox="0 0 274 291" fill="none" xmlns="http://www.w3.org/2000/svg">
<g style="mix-blend-mode:overlay" opacity="0.4">
<path opacity="0.5" d="M258.976 275.738C278.055 256.659 278.055 225.74 258.976 206.661L57.3852 5.07057C38.3065 -14.0081 7.38763 -14.0081 -11.691 5.07057C-30.7697 24.1492 -30.7697 55.0681 -11.691 74.1468L189.9 275.738C208.978 294.804 239.897 294.804 258.976 275.738Z" fill="url(#paint0_linear_332_7107)"/>
<path opacity="0.5" d="M261.154 124.165C272.949 112.369 272.949 93.2549 261.154 81.4746L142.534 -37.1533C130.739 -48.9489 111.626 -48.9489 99.8461 -37.1533C88.0513 -25.3578 88.0513 -6.24346 99.8461 5.53682L218.466 124.165C230.246 135.945 249.359 135.945 261.154 124.165Z" fill="url(#paint1_linear_332_7107)"/>
<path opacity="0.5" d="M113.927 256.079C123.013 246.993 123.013 232.269 113.927 223.194L22.547 131.815C13.4608 122.728 -1.26307 122.728 -10.3375 131.815C-19.4237 140.901 -19.4237 155.625 -10.3375 164.699L81.0422 256.079C90.1284 265.165 104.852 265.165 113.927 256.079Z" fill="url(#paint2_linear_332_7107)"/>
</g>
<defs>
<linearGradient id="paint0_linear_332_7107" x1="258.977" y1="275.732" x2="-11.6919" y2="5.06308" gradientUnits="userSpaceOnUse">
<stop stop-color="white"/>
<stop offset="1" stop-opacity="0"/>
</linearGradient>
<linearGradient id="paint1_linear_332_7107" x1="261.154" y1="124.157" x2="99.827" y2="-37.1594" gradientUnits="userSpaceOnUse">
<stop stop-color="white"/>
<stop offset="1" stop-opacity="0"/>
</linearGradient>
<linearGradient id="paint2_linear_332_7107" x1="113.932" y1="256.077" x2="-10.3386" y2="131.806" gradientUnits="userSpaceOnUse">
<stop stop-color="white"/>
<stop offset="1" stop-opacity="0"/>
</linearGradient>
</defs>
</svg>
