<svg width="502" height="436" viewBox="0 0 502 436" fill="none" xmlns="http://www.w3.org/2000/svg">
<g clip-path="url(#clip0_290_7030)">
<mask id="mask0_290_7030" style="mask-type:alpha" maskUnits="userSpaceOnUse" x="0" y="0" width="502" height="436">
<rect width="502" height="436" fill="url(#paint0_linear_290_7030)"/>
</mask>
<g mask="url(#mask0_290_7030)">
<g style="mix-blend-mode:overlay">
<path d="M493.225 3.99095H489.234V0H488.607V3.99095H484.616V4.56109H488.607V8.55204H489.234V4.56109H493.225V3.99095Z" fill="white"/>
<path d="M493.225 32.4978H489.234V28.5068H488.607V32.4978H484.616V33.0679H488.607V37.0588H489.234V33.0679H493.225V32.4978Z" fill="white"/>
<path d="M493.225 61.0046H489.234V57.0136H488.607V61.0046H484.616V61.5747H488.607V65.5657H489.234V61.5747H493.225V61.0046Z" fill="white"/>
<path d="M493.225 89.5114H489.234V85.5204H488.607V89.5114H484.616V90.0815H488.607V94.0725H489.234V90.0815H493.225V89.5114Z" fill="white"/>
<path d="M493.225 118.018H489.234V114.027H488.607V118.018H484.616V118.588H488.607V122.579H489.234V118.588H493.225V118.018Z" fill="white"/>
<path d="M493.225 146.525H489.234V142.534H488.607V146.525H484.616V147.095H488.607V151.086H489.234V147.095H493.225V146.525Z" fill="white"/>
<path d="M493.225 175.032H489.234V171.041H488.607V175.032H484.616V175.602H488.607V179.593H489.234V175.602H493.225V175.032Z" fill="white"/>
<path d="M493.225 203.539H489.234V199.548H488.607V203.539H484.616V204.109H488.607V208.1H489.234V204.109H493.225V203.539Z" fill="white"/>
<path d="M493.225 232.045H489.234V228.055H488.607V232.045H484.616V232.616H488.607V236.607H489.234V232.616H493.225V232.045Z" fill="white"/>
<path d="M493.225 260.552H489.234V256.561H488.607V260.552H484.616V261.122H488.607V265.113H489.234V261.122H493.225V260.552Z" fill="white"/>
<path d="M493.225 289.059H489.234V285.068H488.607V289.059H484.616V289.629H488.607V293.62H489.234V289.629H493.225V289.059Z" fill="white"/>
<path d="M493.225 317.566H489.234V313.575H488.607V317.566H484.616V318.136H488.607V322.127H489.234V318.136H493.225V317.566Z" fill="white"/>
<path d="M493.225 346.073H489.234V342.082H488.607V346.073H484.616V346.643H488.607V350.634H489.234V346.643H493.225V346.073Z" fill="white"/>
<path d="M493.225 374.579H489.234V370.589H488.607V374.579H484.616V375.15H488.607V379.141H489.234V375.15H493.225V374.579Z" fill="white"/>
<path d="M493.225 403.086H489.234V399.095H488.607V403.086H484.616V403.656H488.607V407.647H489.234V403.656H493.225V403.086Z" fill="white"/>
<path d="M493.225 431.593H489.234V427.602H488.607V431.593H484.616V432.163H488.607V436.154H489.234V432.163H493.225V431.593Z" fill="white"/>
<path d="M464.718 3.99095H460.727V0H460.1V3.99095H456.109V4.56109H460.1V8.55204H460.727V4.56109H464.718V3.99095Z" fill="white"/>
<path d="M464.718 32.4978H460.727V28.5068H460.1V32.4978H456.109V33.0679H460.1V37.0588H460.727V33.0679H464.718V32.4978Z" fill="white"/>
<path d="M464.718 61.0046H460.727V57.0136H460.1V61.0046H456.109V61.5747H460.1V65.5657H460.727V61.5747H464.718V61.0046Z" fill="white"/>
<path d="M464.718 89.5114H460.727V85.5204H460.1V89.5114H456.109V90.0815H460.1V94.0725H460.727V90.0815H464.718V89.5114Z" fill="white"/>
<path d="M464.718 118.018H460.727V114.027H460.1V118.018H456.109V118.588H460.1V122.579H460.727V118.588H464.718V118.018Z" fill="white"/>
<path d="M464.718 146.525H460.727V142.534H460.1V146.525H456.109V147.095H460.1V151.086H460.727V147.095H464.718V146.525Z" fill="white"/>
<path d="M464.718 175.032H460.727V171.041H460.1V175.032H456.109V175.602H460.1V179.593H460.727V175.602H464.718V175.032Z" fill="white"/>
<path d="M464.718 203.539H460.727V199.548H460.1V203.539H456.109V204.109H460.1V208.1H460.727V204.109H464.718V203.539Z" fill="white"/>
<path d="M464.718 232.045H460.727V228.055H460.1V232.045H456.109V232.616H460.1V236.607H460.727V232.616H464.718V232.045Z" fill="white"/>
<path d="M464.718 260.552H460.727V256.561H460.1V260.552H456.109V261.122H460.1V265.113H460.727V261.122H464.718V260.552Z" fill="white"/>
<path d="M464.718 289.059H460.727V285.068H460.1V289.059H456.109V289.629H460.1V293.62H460.727V289.629H464.718V289.059Z" fill="white"/>
<path d="M464.718 317.566H460.727V313.575H460.1V317.566H456.109V318.136H460.1V322.127H460.727V318.136H464.718V317.566Z" fill="white"/>
<path d="M464.718 346.073H460.727V342.082H460.1V346.073H456.109V346.643H460.1V350.634H460.727V346.643H464.718V346.073Z" fill="white"/>
<path d="M464.718 374.579H460.727V370.589H460.1V374.579H456.109V375.15H460.1V379.141H460.727V375.15H464.718V374.579Z" fill="white"/>
<path d="M464.718 403.086H460.727V399.095H460.1V403.086H456.109V403.656H460.1V407.647H460.727V403.656H464.718V403.086Z" fill="white"/>
<path d="M464.718 431.593H460.727V427.602H460.1V431.593H456.109V432.163H460.1V436.154H460.727V432.163H464.718V431.593Z" fill="white"/>
<path d="M436.211 3.99095H432.22V0H431.593V3.99095H427.602V4.56109H431.593V8.55204H432.22V4.56109H436.211V3.99095Z" fill="white"/>
<path d="M436.211 32.4978H432.22V28.5068H431.593V32.4978H427.602V33.0679H431.593V37.0588H432.22V33.0679H436.211V32.4978Z" fill="white"/>
<path d="M436.211 61.0046H432.22V57.0136H431.593V61.0046H427.602V61.5747H431.593V65.5657H432.22V61.5747H436.211V61.0046Z" fill="white"/>
<path d="M436.211 89.5114H432.22V85.5204H431.593V89.5114H427.602V90.0815H431.593V94.0725H432.22V90.0815H436.211V89.5114Z" fill="white"/>
<path d="M436.211 118.018H432.22V114.027H431.593V118.018H427.602V118.588H431.593V122.579H432.22V118.588H436.211V118.018Z" fill="white"/>
<path d="M436.211 146.525H432.22V142.534H431.593V146.525H427.602V147.095H431.593V151.086H432.22V147.095H436.211V146.525Z" fill="white"/>
<path d="M436.211 175.032H432.22V171.041H431.593V175.032H427.602V175.602H431.593V179.593H432.22V175.602H436.211V175.032Z" fill="white"/>
<path d="M436.211 203.539H432.22V199.548H431.593V203.539H427.602V204.109H431.593V208.1H432.22V204.109H436.211V203.539Z" fill="white"/>
<path d="M436.211 232.045H432.22V228.055H431.593V232.045H427.602V232.616H431.593V236.607H432.22V232.616H436.211V232.045Z" fill="white"/>
<path d="M436.211 260.552H432.22V256.561H431.593V260.552H427.602V261.122H431.593V265.113H432.22V261.122H436.211V260.552Z" fill="white"/>
<path d="M436.211 289.059H432.22V285.068H431.593V289.059H427.602V289.629H431.593V293.62H432.22V289.629H436.211V289.059Z" fill="white"/>
<path d="M436.211 317.566H432.22V313.575H431.593V317.566H427.602V318.136H431.593V322.127H432.22V318.136H436.211V317.566Z" fill="white"/>
<path d="M436.211 346.073H432.22V342.082H431.593V346.073H427.602V346.643H431.593V350.634H432.22V346.643H436.211V346.073Z" fill="white"/>
<path d="M436.211 374.579H432.22V370.589H431.593V374.579H427.602V375.15H431.593V379.141H432.22V375.15H436.211V374.579Z" fill="white"/>
<path d="M436.211 403.086H432.22V399.095H431.593V403.086H427.602V403.656H431.593V407.647H432.22V403.656H436.211V403.086Z" fill="white"/>
<path d="M436.211 431.593H432.22V427.602H431.593V431.593H427.602V432.163H431.593V436.154H432.22V432.163H436.211V431.593Z" fill="white"/>
<path d="M407.704 3.99095H403.713V0H403.086V3.99095H399.095V4.56109H403.086V8.55204H403.713V4.56109H407.704V3.99095Z" fill="white"/>
<path d="M407.704 32.4978H403.713V28.5068H403.086V32.4978H399.095V33.0679H403.086V37.0588H403.713V33.0679H407.704V32.4978Z" fill="white"/>
<path d="M407.704 61.0046H403.713V57.0136H403.086V61.0046H399.095V61.5747H403.086V65.5657H403.713V61.5747H407.704V61.0046Z" fill="white"/>
<path d="M407.704 89.5114H403.713V85.5204H403.086V89.5114H399.095V90.0815H403.086V94.0725H403.713V90.0815H407.704V89.5114Z" fill="white"/>
<path d="M407.704 118.018H403.713V114.027H403.086V118.018H399.095V118.588H403.086V122.579H403.713V118.588H407.704V118.018Z" fill="white"/>
<path d="M407.704 146.525H403.713V142.534H403.086V146.525H399.095V147.095H403.086V151.086H403.713V147.095H407.704V146.525Z" fill="white"/>
<path d="M407.704 175.032H403.713V171.041H403.086V175.032H399.095V175.602H403.086V179.593H403.713V175.602H407.704V175.032Z" fill="white"/>
<path d="M407.704 203.539H403.713V199.548H403.086V203.539H399.095V204.109H403.086V208.1H403.713V204.109H407.704V203.539Z" fill="white"/>
<path d="M407.704 232.045H403.713V228.055H403.086V232.045H399.095V232.616H403.086V236.607H403.713V232.616H407.704V232.045Z" fill="white"/>
<path d="M407.704 260.552H403.713V256.561H403.086V260.552H399.095V261.122H403.086V265.113H403.713V261.122H407.704V260.552Z" fill="white"/>
<path d="M407.704 289.059H403.713V285.068H403.086V289.059H399.095V289.629H403.086V293.62H403.713V289.629H407.704V289.059Z" fill="white"/>
<path d="M407.704 317.566H403.713V313.575H403.086V317.566H399.095V318.136H403.086V322.127H403.713V318.136H407.704V317.566Z" fill="white"/>
<path d="M407.704 346.073H403.713V342.082H403.086V346.073H399.095V346.643H403.086V350.634H403.713V346.643H407.704V346.073Z" fill="white"/>
<path d="M407.704 374.579H403.713V370.589H403.086V374.579H399.095V375.15H403.086V379.141H403.713V375.15H407.704V374.579Z" fill="white"/>
<path d="M407.704 403.086H403.713V399.095H403.086V403.086H399.095V403.656H403.086V407.647H403.713V403.656H407.704V403.086Z" fill="white"/>
<path d="M407.704 431.593H403.713V427.602H403.086V431.593H399.095V432.163H403.086V436.154H403.713V432.163H407.704V431.593Z" fill="white"/>
<path d="M379.198 3.99095H375.207V0H374.579V3.99095H370.589V4.56109H374.579V8.55204H375.207V4.56109H379.198V3.99095Z" fill="white"/>
<path d="M379.198 32.4978H375.207V28.5068H374.579V32.4978H370.589V33.0679H374.579V37.0588H375.207V33.0679H379.198V32.4978Z" fill="white"/>
<path d="M379.198 61.0046H375.207V57.0136H374.579V61.0046H370.589V61.5747H374.579V65.5657H375.207V61.5747H379.198V61.0046Z" fill="white"/>
<path d="M379.198 89.5114H375.207V85.5204H374.579V89.5114H370.589V90.0815H374.579V94.0725H375.207V90.0815H379.198V89.5114Z" fill="white"/>
<path d="M379.198 118.018H375.207V114.027H374.579V118.018H370.589V118.588H374.579V122.579H375.207V118.588H379.198V118.018Z" fill="white"/>
<path d="M379.198 146.525H375.207V142.534H374.579V146.525H370.589V147.095H374.579V151.086H375.207V147.095H379.198V146.525Z" fill="white"/>
<path d="M379.198 175.032H375.207V171.041H374.579V175.032H370.589V175.602H374.579V179.593H375.207V175.602H379.198V175.032Z" fill="white"/>
<path d="M379.198 203.539H375.207V199.548H374.579V203.539H370.589V204.109H374.579V208.1H375.207V204.109H379.198V203.539Z" fill="white"/>
<path d="M379.198 232.045H375.207V228.055H374.579V232.045H370.589V232.616H374.579V236.607H375.207V232.616H379.198V232.045Z" fill="white"/>
<path d="M379.198 260.552H375.207V256.561H374.579V260.552H370.589V261.122H374.579V265.113H375.207V261.122H379.198V260.552Z" fill="white"/>
<path d="M379.198 289.059H375.207V285.068H374.579V289.059H370.589V289.629H374.579V293.62H375.207V289.629H379.198V289.059Z" fill="white"/>
<path d="M379.198 317.566H375.207V313.575H374.579V317.566H370.589V318.136H374.579V322.127H375.207V318.136H379.198V317.566Z" fill="white"/>
<path d="M379.198 346.073H375.207V342.082H374.579V346.073H370.589V346.643H374.579V350.634H375.207V346.643H379.198V346.073Z" fill="white"/>
<path d="M379.198 374.579H375.207V370.589H374.579V374.579H370.589V375.15H374.579V379.141H375.207V375.15H379.198V374.579Z" fill="white"/>
<path d="M379.198 403.086H375.207V399.095H374.579V403.086H370.589V403.656H374.579V407.647H375.207V403.656H379.198V403.086Z" fill="white"/>
<path d="M379.198 431.593H375.207V427.602H374.579V431.593H370.589V432.163H374.579V436.154H375.207V432.163H379.198V431.593Z" fill="white"/>
<path d="M350.691 3.99095H346.7V0H346.073V3.99095H342.082V4.56109H346.073V8.55204H346.7V4.56109H350.691V3.99095Z" fill="white"/>
<path d="M350.691 32.4978H346.7V28.5068H346.073V32.4978H342.082V33.0679H346.073V37.0588H346.7V33.0679H350.691V32.4978Z" fill="white"/>
<path d="M350.691 61.0046H346.7V57.0136H346.073V61.0046H342.082V61.5747H346.073V65.5657H346.7V61.5747H350.691V61.0046Z" fill="white"/>
<path d="M350.691 89.5114H346.7V85.5204H346.073V89.5114H342.082V90.0815H346.073V94.0725H346.7V90.0815H350.691V89.5114Z" fill="white"/>
<path d="M350.691 118.018H346.7V114.027H346.073V118.018H342.082V118.588H346.073V122.579H346.7V118.588H350.691V118.018Z" fill="white"/>
<path d="M350.691 146.525H346.7V142.534H346.073V146.525H342.082V147.095H346.073V151.086H346.7V147.095H350.691V146.525Z" fill="white"/>
<path d="M350.691 175.032H346.7V171.041H346.073V175.032H342.082V175.602H346.073V179.593H346.7V175.602H350.691V175.032Z" fill="white"/>
<path d="M350.691 203.539H346.7V199.548H346.073V203.539H342.082V204.109H346.073V208.1H346.7V204.109H350.691V203.539Z" fill="white"/>
<path d="M350.691 232.045H346.7V228.055H346.073V232.045H342.082V232.616H346.073V236.607H346.7V232.616H350.691V232.045Z" fill="white"/>
<path d="M350.691 260.552H346.7V256.561H346.073V260.552H342.082V261.122H346.073V265.113H346.7V261.122H350.691V260.552Z" fill="white"/>
<path d="M350.691 289.059H346.7V285.068H346.073V289.059H342.082V289.629H346.073V293.62H346.7V289.629H350.691V289.059Z" fill="white"/>
<path d="M350.691 317.566H346.7V313.575H346.073V317.566H342.082V318.136H346.073V322.127H346.7V318.136H350.691V317.566Z" fill="white"/>
<path d="M350.691 346.073H346.7V342.082H346.073V346.073H342.082V346.643H346.073V350.634H346.7V346.643H350.691V346.073Z" fill="white"/>
<path d="M350.691 374.579H346.7V370.589H346.073V374.579H342.082V375.15H346.073V379.141H346.7V375.15H350.691V374.579Z" fill="white"/>
<path d="M350.691 403.086H346.7V399.095H346.073V403.086H342.082V403.656H346.073V407.647H346.7V403.656H350.691V403.086Z" fill="white"/>
<path d="M350.691 431.593H346.7V427.602H346.073V431.593H342.082V432.163H346.073V436.154H346.7V432.163H350.691V431.593Z" fill="white"/>
<path d="M322.184 3.99095H318.193V0H317.566V3.99095H313.575V4.56109H317.566V8.55204H318.193V4.56109H322.184V3.99095Z" fill="white"/>
<path d="M322.184 32.4978H318.193V28.5068H317.566V32.4978H313.575V33.0679H317.566V37.0588H318.193V33.0679H322.184V32.4978Z" fill="white"/>
<path d="M322.184 61.0046H318.193V57.0136H317.566V61.0046H313.575V61.5747H317.566V65.5657H318.193V61.5747H322.184V61.0046Z" fill="white"/>
<path d="M322.184 89.5114H318.193V85.5204H317.566V89.5114H313.575V90.0815H317.566V94.0725H318.193V90.0815H322.184V89.5114Z" fill="white"/>
<path d="M322.184 118.018H318.193V114.027H317.566V118.018H313.575V118.588H317.566V122.579H318.193V118.588H322.184V118.018Z" fill="white"/>
<path d="M322.184 146.525H318.193V142.534H317.566V146.525H313.575V147.095H317.566V151.086H318.193V147.095H322.184V146.525Z" fill="white"/>
<path d="M322.184 175.032H318.193V171.041H317.566V175.032H313.575V175.602H317.566V179.593H318.193V175.602H322.184V175.032Z" fill="white"/>
<path d="M322.184 203.539H318.193V199.548H317.566V203.539H313.575V204.109H317.566V208.1H318.193V204.109H322.184V203.539Z" fill="white"/>
<path d="M322.184 232.045H318.193V228.055H317.566V232.045H313.575V232.616H317.566V236.607H318.193V232.616H322.184V232.045Z" fill="white"/>
<path d="M322.184 260.552H318.193V256.561H317.566V260.552H313.575V261.122H317.566V265.113H318.193V261.122H322.184V260.552Z" fill="white"/>
<path d="M322.184 289.059H318.193V285.068H317.566V289.059H313.575V289.629H317.566V293.62H318.193V289.629H322.184V289.059Z" fill="white"/>
<path d="M322.184 317.566H318.193V313.575H317.566V317.566H313.575V318.136H317.566V322.127H318.193V318.136H322.184V317.566Z" fill="white"/>
<path d="M322.184 346.073H318.193V342.082H317.566V346.073H313.575V346.643H317.566V350.634H318.193V346.643H322.184V346.073Z" fill="white"/>
<path d="M322.184 374.579H318.193V370.589H317.566V374.579H313.575V375.15H317.566V379.141H318.193V375.15H322.184V374.579Z" fill="white"/>
<path d="M322.184 403.086H318.193V399.095H317.566V403.086H313.575V403.656H317.566V407.647H318.193V403.656H322.184V403.086Z" fill="white"/>
<path d="M322.184 431.593H318.193V427.602H317.566V431.593H313.575V432.163H317.566V436.154H318.193V432.163H322.184V431.593Z" fill="white"/>
<path d="M293.677 3.99095H289.686V0H289.059V3.99095H285.068V4.56109H289.059V8.55204H289.686V4.56109H293.677V3.99095Z" fill="white"/>
<path d="M293.677 32.4978H289.686V28.5068H289.059V32.4978H285.068V33.0679H289.059V37.0588H289.686V33.0679H293.677V32.4978Z" fill="white"/>
<path d="M293.677 61.0046H289.686V57.0136H289.059V61.0046H285.068V61.5747H289.059V65.5657H289.686V61.5747H293.677V61.0046Z" fill="white"/>
<path d="M293.677 89.5114H289.686V85.5204H289.059V89.5114H285.068V90.0815H289.059V94.0725H289.686V90.0815H293.677V89.5114Z" fill="white"/>
<path d="M293.677 118.018H289.686V114.027H289.059V118.018H285.068V118.588H289.059V122.579H289.686V118.588H293.677V118.018Z" fill="white"/>
<path d="M293.677 146.525H289.686V142.534H289.059V146.525H285.068V147.095H289.059V151.086H289.686V147.095H293.677V146.525Z" fill="white"/>
<path d="M293.677 175.032H289.686V171.041H289.059V175.032H285.068V175.602H289.059V179.593H289.686V175.602H293.677V175.032Z" fill="white"/>
<path d="M293.677 203.539H289.686V199.548H289.059V203.539H285.068V204.109H289.059V208.1H289.686V204.109H293.677V203.539Z" fill="white"/>
<path d="M293.677 232.045H289.686V228.055H289.059V232.045H285.068V232.616H289.059V236.607H289.686V232.616H293.677V232.045Z" fill="white"/>
<path d="M293.677 260.552H289.686V256.561H289.059V260.552H285.068V261.122H289.059V265.113H289.686V261.122H293.677V260.552Z" fill="white"/>
<path d="M293.677 289.059H289.686V285.068H289.059V289.059H285.068V289.629H289.059V293.62H289.686V289.629H293.677V289.059Z" fill="white"/>
<path d="M293.677 317.566H289.686V313.575H289.059V317.566H285.068V318.136H289.059V322.127H289.686V318.136H293.677V317.566Z" fill="white"/>
<path d="M293.677 346.073H289.686V342.082H289.059V346.073H285.068V346.643H289.059V350.634H289.686V346.643H293.677V346.073Z" fill="white"/>
<path d="M293.677 374.579H289.686V370.589H289.059V374.579H285.068V375.15H289.059V379.141H289.686V375.15H293.677V374.579Z" fill="white"/>
<path d="M293.677 403.086H289.686V399.095H289.059V403.086H285.068V403.656H289.059V407.647H289.686V403.656H293.677V403.086Z" fill="white"/>
<path d="M293.677 431.593H289.686V427.602H289.059V431.593H285.068V432.163H289.059V436.154H289.686V432.163H293.677V431.593Z" fill="white"/>
<path d="M265.17 3.99095H261.179V0H260.552V3.99095H256.561V4.56109H260.552V8.55204H261.179V4.56109H265.17V3.99095Z" fill="white"/>
<path d="M265.17 32.4978H261.179V28.5068H260.552V32.4978H256.561V33.0679H260.552V37.0588H261.179V33.0679H265.17V32.4978Z" fill="white"/>
<path d="M265.17 61.0046H261.179V57.0136H260.552V61.0046H256.561V61.5747H260.552V65.5657H261.179V61.5747H265.17V61.0046Z" fill="white"/>
<path d="M265.17 89.5114H261.179V85.5204H260.552V89.5114H256.561V90.0815H260.552V94.0725H261.179V90.0815H265.17V89.5114Z" fill="white"/>
<path d="M265.17 118.018H261.179V114.027H260.552V118.018H256.561V118.588H260.552V122.579H261.179V118.588H265.17V118.018Z" fill="white"/>
<path d="M265.17 146.525H261.179V142.534H260.552V146.525H256.561V147.095H260.552V151.086H261.179V147.095H265.17V146.525Z" fill="white"/>
<path d="M265.17 175.032H261.179V171.041H260.552V175.032H256.561V175.602H260.552V179.593H261.179V175.602H265.17V175.032Z" fill="white"/>
<path d="M265.17 203.539H261.179V199.548H260.552V203.539H256.561V204.109H260.552V208.1H261.179V204.109H265.17V203.539Z" fill="white"/>
<path d="M265.17 232.045H261.179V228.055H260.552V232.045H256.561V232.616H260.552V236.607H261.179V232.616H265.17V232.045Z" fill="white"/>
<path d="M265.17 260.552H261.179V256.561H260.552V260.552H256.561V261.122H260.552V265.113H261.179V261.122H265.17V260.552Z" fill="white"/>
<path d="M265.17 289.059H261.179V285.068H260.552V289.059H256.561V289.629H260.552V293.62H261.179V289.629H265.17V289.059Z" fill="white"/>
<path d="M265.17 317.566H261.179V313.575H260.552V317.566H256.561V318.136H260.552V322.127H261.179V318.136H265.17V317.566Z" fill="white"/>
<path d="M265.17 346.073H261.179V342.082H260.552V346.073H256.561V346.643H260.552V350.634H261.179V346.643H265.17V346.073Z" fill="white"/>
<path d="M265.17 374.579H261.179V370.589H260.552V374.579H256.561V375.15H260.552V379.141H261.179V375.15H265.17V374.579Z" fill="white"/>
<path d="M265.17 403.086H261.179V399.095H260.552V403.086H256.561V403.656H260.552V407.647H261.179V403.656H265.17V403.086Z" fill="white"/>
<path d="M265.17 431.593H261.179V427.602H260.552V431.593H256.561V432.163H260.552V436.154H261.179V432.163H265.17V431.593Z" fill="white"/>
<path d="M236.664 3.99095H232.673V0H232.045V3.99095H228.054V4.56109H232.045V8.55204H232.673V4.56109H236.664V3.99095Z" fill="white"/>
<path d="M236.664 32.4978H232.673V28.5068H232.045V32.4978H228.054V33.0679H232.045V37.0588H232.673V33.0679H236.664V32.4978Z" fill="white"/>
<path d="M236.664 61.0046H232.673V57.0136H232.045V61.0046H228.054V61.5747H232.045V65.5657H232.673V61.5747H236.664V61.0046Z" fill="white"/>
<path d="M236.664 89.5114H232.673V85.5204H232.045V89.5114H228.054V90.0815H232.045V94.0725H232.673V90.0815H236.664V89.5114Z" fill="white"/>
<path d="M236.664 118.018H232.673V114.027H232.045V118.018H228.054V118.588H232.045V122.579H232.673V118.588H236.664V118.018Z" fill="white"/>
<path d="M236.664 146.525H232.673V142.534H232.045V146.525H228.054V147.095H232.045V151.086H232.673V147.095H236.664V146.525Z" fill="white"/>
<path d="M236.664 175.032H232.673V171.041H232.045V175.032H228.054V175.602H232.045V179.593H232.673V175.602H236.664V175.032Z" fill="white"/>
<path d="M236.664 203.539H232.673V199.548H232.045V203.539H228.054V204.109H232.045V208.1H232.673V204.109H236.664V203.539Z" fill="white"/>
<path d="M236.664 232.045H232.673V228.055H232.045V232.045H228.054V232.616H232.045V236.607H232.673V232.616H236.664V232.045Z" fill="white"/>
<path d="M236.664 260.552H232.673V256.561H232.045V260.552H228.054V261.122H232.045V265.113H232.673V261.122H236.664V260.552Z" fill="white"/>
<path d="M236.664 289.059H232.673V285.068H232.045V289.059H228.054V289.629H232.045V293.62H232.673V289.629H236.664V289.059Z" fill="white"/>
<path d="M236.664 317.566H232.673V313.575H232.045V317.566H228.054V318.136H232.045V322.127H232.673V318.136H236.664V317.566Z" fill="white"/>
<path d="M236.664 346.073H232.673V342.082H232.045V346.073H228.054V346.643H232.045V350.634H232.673V346.643H236.664V346.073Z" fill="white"/>
<path d="M236.664 374.579H232.673V370.589H232.045V374.579H228.054V375.15H232.045V379.141H232.673V375.15H236.664V374.579Z" fill="white"/>
<path d="M236.664 403.086H232.673V399.095H232.045V403.086H228.054V403.656H232.045V407.647H232.673V403.656H236.664V403.086Z" fill="white"/>
<path d="M236.664 431.593H232.673V427.602H232.045V431.593H228.054V432.163H232.045V436.154H232.673V432.163H236.664V431.593Z" fill="white"/>
<path d="M208.157 3.99095H204.166V0H203.539V3.99095H199.548V4.56109H203.539V8.55204H204.166V4.56109H208.157V3.99095Z" fill="white"/>
<path d="M208.157 32.4978H204.166V28.5068H203.539V32.4978H199.548V33.0679H203.539V37.0588H204.166V33.0679H208.157V32.4978Z" fill="white"/>
<path d="M208.157 61.0046H204.166V57.0136H203.539V61.0046H199.548V61.5747H203.539V65.5657H204.166V61.5747H208.157V61.0046Z" fill="white"/>
<path d="M208.157 89.5114H204.166V85.5204H203.539V89.5114H199.548V90.0815H203.539V94.0725H204.166V90.0815H208.157V89.5114Z" fill="white"/>
<path d="M208.157 118.018H204.166V114.027H203.539V118.018H199.548V118.588H203.539V122.579H204.166V118.588H208.157V118.018Z" fill="white"/>
<path d="M208.157 146.525H204.166V142.534H203.539V146.525H199.548V147.095H203.539V151.086H204.166V147.095H208.157V146.525Z" fill="white"/>
<path d="M208.157 175.032H204.166V171.041H203.539V175.032H199.548V175.602H203.539V179.593H204.166V175.602H208.157V175.032Z" fill="white"/>
<path d="M208.157 203.539H204.166V199.548H203.539V203.539H199.548V204.109H203.539V208.1H204.166V204.109H208.157V203.539Z" fill="white"/>
<path d="M208.157 232.045H204.166V228.055H203.539V232.045H199.548V232.616H203.539V236.607H204.166V232.616H208.157V232.045Z" fill="white"/>
<path d="M208.157 260.552H204.166V256.561H203.539V260.552H199.548V261.122H203.539V265.113H204.166V261.122H208.157V260.552Z" fill="white"/>
<path d="M208.157 289.059H204.166V285.068H203.539V289.059H199.548V289.629H203.539V293.62H204.166V289.629H208.157V289.059Z" fill="white"/>
<path d="M208.157 317.566H204.166V313.575H203.539V317.566H199.548V318.136H203.539V322.127H204.166V318.136H208.157V317.566Z" fill="white"/>
<path d="M208.157 346.073H204.166V342.082H203.539V346.073H199.548V346.643H203.539V350.634H204.166V346.643H208.157V346.073Z" fill="white"/>
<path d="M208.157 374.579H204.166V370.589H203.539V374.579H199.548V375.15H203.539V379.141H204.166V375.15H208.157V374.579Z" fill="white"/>
<path d="M208.157 403.086H204.166V399.095H203.539V403.086H199.548V403.656H203.539V407.647H204.166V403.656H208.157V403.086Z" fill="white"/>
<path d="M208.157 431.593H204.166V427.602H203.539V431.593H199.548V432.163H203.539V436.154H204.166V432.163H208.157V431.593Z" fill="white"/>
<path d="M179.65 3.99095H175.659V0H175.032V3.99095H171.041V4.56109H175.032V8.55204H175.659V4.56109H179.65V3.99095Z" fill="white"/>
<path d="M179.65 32.4978H175.659V28.5068H175.032V32.4978H171.041V33.0679H175.032V37.0588H175.659V33.0679H179.65V32.4978Z" fill="white"/>
<path d="M179.65 61.0046H175.659V57.0136H175.032V61.0046H171.041V61.5747H175.032V65.5657H175.659V61.5747H179.65V61.0046Z" fill="white"/>
<path d="M179.65 89.5114H175.659V85.5204H175.032V89.5114H171.041V90.0815H175.032V94.0725H175.659V90.0815H179.65V89.5114Z" fill="white"/>
<path d="M179.65 118.018H175.659V114.027H175.032V118.018H171.041V118.588H175.032V122.579H175.659V118.588H179.65V118.018Z" fill="white"/>
<path d="M179.65 146.525H175.659V142.534H175.032V146.525H171.041V147.095H175.032V151.086H175.659V147.095H179.65V146.525Z" fill="white"/>
<path d="M179.65 175.032H175.659V171.041H175.032V175.032H171.041V175.602H175.032V179.593H175.659V175.602H179.65V175.032Z" fill="white"/>
<path d="M179.65 203.539H175.659V199.548H175.032V203.539H171.041V204.109H175.032V208.1H175.659V204.109H179.65V203.539Z" fill="white"/>
<path d="M179.65 232.045H175.659V228.055H175.032V232.045H171.041V232.616H175.032V236.607H175.659V232.616H179.65V232.045Z" fill="white"/>
<path d="M179.65 260.552H175.659V256.561H175.032V260.552H171.041V261.122H175.032V265.113H175.659V261.122H179.65V260.552Z" fill="white"/>
<path d="M179.65 289.059H175.659V285.068H175.032V289.059H171.041V289.629H175.032V293.62H175.659V289.629H179.65V289.059Z" fill="white"/>
<path d="M179.65 317.566H175.659V313.575H175.032V317.566H171.041V318.136H175.032V322.127H175.659V318.136H179.65V317.566Z" fill="white"/>
<path d="M179.65 346.073H175.659V342.082H175.032V346.073H171.041V346.643H175.032V350.634H175.659V346.643H179.65V346.073Z" fill="white"/>
<path d="M179.65 374.579H175.659V370.589H175.032V374.579H171.041V375.15H175.032V379.141H175.659V375.15H179.65V374.579Z" fill="white"/>
<path d="M179.65 403.086H175.659V399.095H175.032V403.086H171.041V403.656H175.032V407.647H175.659V403.656H179.65V403.086Z" fill="white"/>
<path d="M179.65 431.593H175.659V427.602H175.032V431.593H171.041V432.163H175.032V436.154H175.659V432.163H179.65V431.593Z" fill="white"/>
<path d="M151.143 3.99095H147.152V0H146.525V3.99095H142.534V4.56109H146.525V8.55204H147.152V4.56109H151.143V3.99095Z" fill="white"/>
<path d="M151.143 32.4978H147.152V28.5068H146.525V32.4978H142.534V33.0679H146.525V37.0588H147.152V33.0679H151.143V32.4978Z" fill="white"/>
<path d="M151.143 61.0046H147.152V57.0136H146.525V61.0046H142.534V61.5747H146.525V65.5657H147.152V61.5747H151.143V61.0046Z" fill="white"/>
<path d="M151.143 89.5114H147.152V85.5204H146.525V89.5114H142.534V90.0815H146.525V94.0725H147.152V90.0815H151.143V89.5114Z" fill="white"/>
<path d="M151.143 118.018H147.152V114.027H146.525V118.018H142.534V118.588H146.525V122.579H147.152V118.588H151.143V118.018Z" fill="white"/>
<path d="M151.143 146.525H147.152V142.534H146.525V146.525H142.534V147.095H146.525V151.086H147.152V147.095H151.143V146.525Z" fill="white"/>
<path d="M151.143 175.032H147.152V171.041H146.525V175.032H142.534V175.602H146.525V179.593H147.152V175.602H151.143V175.032Z" fill="white"/>
<path d="M151.143 203.539H147.152V199.548H146.525V203.539H142.534V204.109H146.525V208.1H147.152V204.109H151.143V203.539Z" fill="white"/>
<path d="M151.143 232.045H147.152V228.055H146.525V232.045H142.534V232.616H146.525V236.607H147.152V232.616H151.143V232.045Z" fill="white"/>
<path d="M151.143 260.552H147.152V256.561H146.525V260.552H142.534V261.122H146.525V265.113H147.152V261.122H151.143V260.552Z" fill="white"/>
<path d="M151.143 289.059H147.152V285.068H146.525V289.059H142.534V289.629H146.525V293.62H147.152V289.629H151.143V289.059Z" fill="white"/>
<path d="M151.143 317.566H147.152V313.575H146.525V317.566H142.534V318.136H146.525V322.127H147.152V318.136H151.143V317.566Z" fill="white"/>
<path d="M151.143 346.073H147.152V342.082H146.525V346.073H142.534V346.643H146.525V350.634H147.152V346.643H151.143V346.073Z" fill="white"/>
<path d="M151.143 374.579H147.152V370.589H146.525V374.579H142.534V375.15H146.525V379.141H147.152V375.15H151.143V374.579Z" fill="white"/>
<path d="M151.143 403.086H147.152V399.095H146.525V403.086H142.534V403.656H146.525V407.647H147.152V403.656H151.143V403.086Z" fill="white"/>
<path d="M151.143 431.593H147.152V427.602H146.525V431.593H142.534V432.163H146.525V436.154H147.152V432.163H151.143V431.593Z" fill="white"/>
<path d="M122.636 3.99095H118.645V0H118.018V3.99095H114.027V4.56109H118.018V8.55204H118.645V4.56109H122.636V3.99095Z" fill="white"/>
<path d="M122.636 32.4978H118.645V28.5068H118.018V32.4978H114.027V33.0679H118.018V37.0588H118.645V33.0679H122.636V32.4978Z" fill="white"/>
<path d="M122.636 61.0046H118.645V57.0136H118.018V61.0046H114.027V61.5747H118.018V65.5657H118.645V61.5747H122.636V61.0046Z" fill="white"/>
<path d="M122.636 89.5114H118.645V85.5204H118.018V89.5114H114.027V90.0815H118.018V94.0725H118.645V90.0815H122.636V89.5114Z" fill="white"/>
<path d="M122.636 118.018H118.645V114.027H118.018V118.018H114.027V118.588H118.018V122.579H118.645V118.588H122.636V118.018Z" fill="white"/>
<path d="M122.636 146.525H118.645V142.534H118.018V146.525H114.027V147.095H118.018V151.086H118.645V147.095H122.636V146.525Z" fill="white"/>
<path d="M122.636 175.032H118.645V171.041H118.018V175.032H114.027V175.602H118.018V179.593H118.645V175.602H122.636V175.032Z" fill="white"/>
<path d="M122.636 203.539H118.645V199.548H118.018V203.539H114.027V204.109H118.018V208.1H118.645V204.109H122.636V203.539Z" fill="white"/>
<path d="M122.636 232.045H118.645V228.055H118.018V232.045H114.027V232.616H118.018V236.607H118.645V232.616H122.636V232.045Z" fill="white"/>
<path d="M122.636 260.552H118.645V256.561H118.018V260.552H114.027V261.122H118.018V265.113H118.645V261.122H122.636V260.552Z" fill="white"/>
<path d="M122.636 289.059H118.645V285.068H118.018V289.059H114.027V289.629H118.018V293.62H118.645V289.629H122.636V289.059Z" fill="white"/>
<path d="M122.636 317.566H118.645V313.575H118.018V317.566H114.027V318.136H118.018V322.127H118.645V318.136H122.636V317.566Z" fill="white"/>
<path d="M122.636 346.073H118.645V342.082H118.018V346.073H114.027V346.643H118.018V350.634H118.645V346.643H122.636V346.073Z" fill="white"/>
<path d="M122.636 374.579H118.645V370.589H118.018V374.579H114.027V375.15H118.018V379.141H118.645V375.15H122.636V374.579Z" fill="white"/>
<path d="M122.636 403.086H118.645V399.095H118.018V403.086H114.027V403.656H118.018V407.647H118.645V403.656H122.636V403.086Z" fill="white"/>
<path d="M122.636 431.593H118.645V427.602H118.018V431.593H114.027V432.163H118.018V436.154H118.645V432.163H122.636V431.593Z" fill="white"/>
<path d="M94.1295 3.99095H90.1385V0H89.5113V3.99095H85.5204V4.56109H89.5113V8.55204H90.1385V4.56109H94.1295V3.99095Z" fill="white"/>
<path d="M94.1295 32.4978H90.1385V28.5068H89.5113V32.4978H85.5204V33.0679H89.5113V37.0588H90.1385V33.0679H94.1295V32.4978Z" fill="white"/>
<path d="M94.1295 61.0046H90.1385V57.0136H89.5113V61.0046H85.5204V61.5747H89.5113V65.5657H90.1385V61.5747H94.1295V61.0046Z" fill="white"/>
<path d="M94.1295 89.5114H90.1385V85.5204H89.5113V89.5114H85.5204V90.0815H89.5113V94.0725H90.1385V90.0815H94.1295V89.5114Z" fill="white"/>
<path d="M94.1295 118.018H90.1385V114.027H89.5113V118.018H85.5204V118.588H89.5113V122.579H90.1385V118.588H94.1295V118.018Z" fill="white"/>
<path d="M94.1295 146.525H90.1385V142.534H89.5113V146.525H85.5204V147.095H89.5113V151.086H90.1385V147.095H94.1295V146.525Z" fill="white"/>
<path d="M94.1295 175.032H90.1385V171.041H89.5113V175.032H85.5204V175.602H89.5113V179.593H90.1385V175.602H94.1295V175.032Z" fill="white"/>
<path d="M94.1295 203.539H90.1385V199.548H89.5113V203.539H85.5204V204.109H89.5113V208.1H90.1385V204.109H94.1295V203.539Z" fill="white"/>
<path d="M94.1295 232.045H90.1385V228.055H89.5113V232.045H85.5204V232.616H89.5113V236.607H90.1385V232.616H94.1295V232.045Z" fill="white"/>
<path d="M94.1295 260.552H90.1385V256.561H89.5113V260.552H85.5204V261.122H89.5113V265.113H90.1385V261.122H94.1295V260.552Z" fill="white"/>
<path d="M94.1295 289.059H90.1385V285.068H89.5113V289.059H85.5204V289.629H89.5113V293.62H90.1385V289.629H94.1295V289.059Z" fill="white"/>
<path d="M94.1295 317.566H90.1385V313.575H89.5113V317.566H85.5204V318.136H89.5113V322.127H90.1385V318.136H94.1295V317.566Z" fill="white"/>
<path d="M94.1295 346.073H90.1385V342.082H89.5113V346.073H85.5204V346.643H89.5113V350.634H90.1385V346.643H94.1295V346.073Z" fill="white"/>
<path d="M94.1295 374.579H90.1385V370.589H89.5113V374.579H85.5204V375.15H89.5113V379.141H90.1385V375.15H94.1295V374.579Z" fill="white"/>
<path d="M94.1295 403.086H90.1385V399.095H89.5113V403.086H85.5204V403.656H89.5113V407.647H90.1385V403.656H94.1295V403.086Z" fill="white"/>
<path d="M94.1295 431.593H90.1385V427.602H89.5113V431.593H85.5204V432.163H89.5113V436.154H90.1385V432.163H94.1295V431.593Z" fill="white"/>
<path d="M65.6228 3.99095H61.6318V0H61.0046V3.99095H57.0137V4.56109H61.0046V8.55204H61.6318V4.56109H65.6228V3.99095Z" fill="white"/>
<path d="M65.6228 32.4978H61.6318V28.5068H61.0046V32.4978H57.0137V33.0679H61.0046V37.0588H61.6318V33.0679H65.6228V32.4978Z" fill="white"/>
<path d="M65.6228 61.0046H61.6318V57.0136H61.0046V61.0046H57.0137V61.5747H61.0046V65.5657H61.6318V61.5747H65.6228V61.0046Z" fill="white"/>
<path d="M65.6228 89.5114H61.6318V85.5204H61.0046V89.5114H57.0137V90.0815H61.0046V94.0725H61.6318V90.0815H65.6228V89.5114Z" fill="white"/>
<path d="M65.6228 118.018H61.6318V114.027H61.0046V118.018H57.0137V118.588H61.0046V122.579H61.6318V118.588H65.6228V118.018Z" fill="white"/>
<path d="M65.6228 146.525H61.6318V142.534H61.0046V146.525H57.0137V147.095H61.0046V151.086H61.6318V147.095H65.6228V146.525Z" fill="white"/>
<path d="M65.6228 175.032H61.6318V171.041H61.0046V175.032H57.0137V175.602H61.0046V179.593H61.6318V175.602H65.6228V175.032Z" fill="white"/>
<path d="M65.6228 203.539H61.6318V199.548H61.0046V203.539H57.0137V204.109H61.0046V208.1H61.6318V204.109H65.6228V203.539Z" fill="white"/>
<path d="M65.6228 232.045H61.6318V228.055H61.0046V232.045H57.0137V232.616H61.0046V236.607H61.6318V232.616H65.6228V232.045Z" fill="white"/>
<path d="M65.6228 260.552H61.6318V256.561H61.0046V260.552H57.0137V261.122H61.0046V265.113H61.6318V261.122H65.6228V260.552Z" fill="white"/>
<path d="M65.6228 289.059H61.6318V285.068H61.0046V289.059H57.0137V289.629H61.0046V293.62H61.6318V289.629H65.6228V289.059Z" fill="white"/>
<path d="M65.6228 317.566H61.6318V313.575H61.0046V317.566H57.0137V318.136H61.0046V322.127H61.6318V318.136H65.6228V317.566Z" fill="white"/>
<path d="M65.6228 346.073H61.6318V342.082H61.0046V346.073H57.0137V346.643H61.0046V350.634H61.6318V346.643H65.6228V346.073Z" fill="white"/>
<path d="M65.6228 374.579H61.6318V370.589H61.0046V374.579H57.0137V375.15H61.0046V379.141H61.6318V375.15H65.6228V374.579Z" fill="white"/>
<path d="M65.6228 403.086H61.6318V399.095H61.0046V403.086H57.0137V403.656H61.0046V407.647H61.6318V403.656H65.6228V403.086Z" fill="white"/>
<path d="M65.6228 431.593H61.6318V427.602H61.0046V431.593H57.0137V432.163H61.0046V436.154H61.6318V432.163H65.6228V431.593Z" fill="white"/>
<path d="M37.1159 3.99095H33.125V0H32.4978V3.99095H28.5068V4.56109H32.4978V8.55204H33.125V4.56109H37.1159V3.99095Z" fill="white"/>
<path d="M37.1159 32.4978H33.125V28.5068H32.4978V32.4978H28.5068V33.0679H32.4978V37.0588H33.125V33.0679H37.1159V32.4978Z" fill="white"/>
<path d="M37.1159 61.0046H33.125V57.0136H32.4978V61.0046H28.5068V61.5747H32.4978V65.5657H33.125V61.5747H37.1159V61.0046Z" fill="white"/>
<path d="M37.1159 89.5114H33.125V85.5204H32.4978V89.5114H28.5068V90.0815H32.4978V94.0725H33.125V90.0815H37.1159V89.5114Z" fill="white"/>
<path d="M37.1159 118.018H33.125V114.027H32.4978V118.018H28.5068V118.588H32.4978V122.579H33.125V118.588H37.1159V118.018Z" fill="white"/>
<path d="M37.1159 146.525H33.125V142.534H32.4978V146.525H28.5068V147.095H32.4978V151.086H33.125V147.095H37.1159V146.525Z" fill="white"/>
<path d="M37.1159 175.032H33.125V171.041H32.4978V175.032H28.5068V175.602H32.4978V179.593H33.125V175.602H37.1159V175.032Z" fill="white"/>
<path d="M37.1159 203.539H33.125V199.548H32.4978V203.539H28.5068V204.109H32.4978V208.1H33.125V204.109H37.1159V203.539Z" fill="white"/>
<path d="M37.1159 232.045H33.125V228.055H32.4978V232.045H28.5068V232.616H32.4978V236.607H33.125V232.616H37.1159V232.045Z" fill="white"/>
<path d="M37.1159 260.552H33.125V256.561H32.4978V260.552H28.5068V261.122H32.4978V265.113H33.125V261.122H37.1159V260.552Z" fill="white"/>
<path d="M37.1159 289.059H33.125V285.068H32.4978V289.059H28.5068V289.629H32.4978V293.62H33.125V289.629H37.1159V289.059Z" fill="white"/>
<path d="M37.1159 317.566H33.125V313.575H32.4978V317.566H28.5068V318.136H32.4978V322.127H33.125V318.136H37.1159V317.566Z" fill="white"/>
<path d="M37.1159 346.073H33.125V342.082H32.4978V346.073H28.5068V346.643H32.4978V350.634H33.125V346.643H37.1159V346.073Z" fill="white"/>
<path d="M37.1159 374.579H33.125V370.589H32.4978V374.579H28.5068V375.15H32.4978V379.141H33.125V375.15H37.1159V374.579Z" fill="white"/>
<path d="M37.1159 403.086H33.125V399.095H32.4978V403.086H28.5068V403.656H32.4978V407.647H33.125V403.656H37.1159V403.086Z" fill="white"/>
<path d="M37.1159 431.593H33.125V427.602H32.4978V431.593H28.5068V432.163H32.4978V436.154H33.125V432.163H37.1159V431.593Z" fill="white"/>
<path d="M8.60911 3.99095H4.61816V0H3.99095V3.99095H0V4.56109H3.99095V8.55204H4.61816V4.56109H8.60911V3.99095Z" fill="white"/>
<path d="M8.60911 32.4978H4.61816V28.5068H3.99095V32.4978H0V33.0679H3.99095V37.0588H4.61816V33.0679H8.60911V32.4978Z" fill="white"/>
<path d="M8.60911 61.0046H4.61816V57.0136H3.99095V61.0046H0V61.5747H3.99095V65.5657H4.61816V61.5747H8.60911V61.0046Z" fill="white"/>
<path d="M8.60911 89.5114H4.61816V85.5204H3.99095V89.5114H0V90.0815H3.99095V94.0725H4.61816V90.0815H8.60911V89.5114Z" fill="white"/>
<path d="M8.60911 118.018H4.61816V114.027H3.99095V118.018H0V118.588H3.99095V122.579H4.61816V118.588H8.60911V118.018Z" fill="white"/>
<path d="M8.60911 146.525H4.61816V142.534H3.99095V146.525H0V147.095H3.99095V151.086H4.61816V147.095H8.60911V146.525Z" fill="white"/>
<path d="M8.60911 175.032H4.61816V171.041H3.99095V175.032H0V175.602H3.99095V179.593H4.61816V175.602H8.60911V175.032Z" fill="white"/>
<path d="M8.60911 203.539H4.61816V199.548H3.99095V203.539H0V204.109H3.99095V208.1H4.61816V204.109H8.60911V203.539Z" fill="white"/>
<path d="M8.60911 232.045H4.61816V228.055H3.99095V232.045H0V232.616H3.99095V236.607H4.61816V232.616H8.60911V232.045Z" fill="white"/>
<path d="M8.60911 260.552H4.61816V256.561H3.99095V260.552H0V261.122H3.99095V265.113H4.61816V261.122H8.60911V260.552Z" fill="white"/>
<path d="M8.60911 289.059H4.61816V285.068H3.99095V289.059H0V289.629H3.99095V293.62H4.61816V289.629H8.60911V289.059Z" fill="white"/>
<path d="M8.60911 317.566H4.61816V313.575H3.99095V317.566H0V318.136H3.99095V322.127H4.61816V318.136H8.60911V317.566Z" fill="white"/>
<path d="M8.60911 346.073H4.61816V342.082H3.99095V346.073H0V346.643H3.99095V350.634H4.61816V346.643H8.60911V346.073Z" fill="white"/>
<path d="M8.60911 374.579H4.61816V370.589H3.99095V374.579H0V375.15H3.99095V379.141H4.61816V375.15H8.60911V374.579Z" fill="white"/>
<path d="M8.60911 403.086H4.61816V399.095H3.99095V403.086H0V403.656H3.99095V407.647H4.61816V403.656H8.60911V403.086Z" fill="white"/>
<path d="M8.60911 431.593H4.61816V427.602H3.99095V431.593H0V432.163H3.99095V436.154H4.61816V432.163H8.60911V431.593Z" fill="white"/>
</g>
</g>
</g>
<defs>
<linearGradient id="paint0_linear_290_7030" x1="502" y1="-4.32131e-05" x2="2.50603e-05" y2="436" gradientUnits="userSpaceOnUse">
<stop stop-color="white"/>
<stop offset="1" stop-color="white" stop-opacity="0"/>
</linearGradient>
<clipPath id="clip0_290_7030">
<rect width="502" height="436" fill="white"/>
</clipPath>
</defs>
</svg>
