<svg width="49" height="48" viewBox="0 0 49 48" fill="none" xmlns="http://www.w3.org/2000/svg">
<g clip-path="url(#clip0_12_565)">
<path opacity="0.2" d="M24.3334 34.5C28.4755 34.5 31.8334 31.1421 31.8334 27C31.8334 22.8579 28.4755 19.5 24.3334 19.5C20.1912 19.5 16.8334 22.8579 16.8334 27C16.8334 31.1421 20.1912 34.5 24.3334 34.5Z" fill="#F9A51D"/>
<path opacity="0.2" d="M12.3334 22.5C15.6471 22.5 18.3334 19.8137 18.3334 16.5C18.3334 13.1863 15.6471 10.5 12.3334 10.5C9.01967 10.5 6.33337 13.1863 6.33337 16.5C6.33337 19.8137 9.01967 22.5 12.3334 22.5Z" fill="#F9A51D"/>
<path opacity="0.2" d="M36.3334 22.5C39.6471 22.5 42.3334 19.8137 42.3334 16.5C42.3334 13.1863 39.6471 10.5 36.3334 10.5C33.0197 10.5 30.3334 13.1863 30.3334 16.5C30.3334 19.8137 33.0197 22.5 36.3334 22.5Z" fill="#F9A51D"/>
<path d="M36.3334 22.5C38.0801 22.4987 39.8031 22.9047 41.3654 23.6859C42.9277 24.4671 44.2864 25.6018 45.3334 27" stroke="#F9A51D" stroke-width="2" stroke-linecap="round" stroke-linejoin="round"/>
<path d="M3.33337 27C4.38037 25.6018 5.739 24.4671 7.30133 23.6859C8.86366 22.9047 10.5866 22.4987 12.3334 22.5" stroke="#F9A51D" stroke-width="2" stroke-linecap="round" stroke-linejoin="round"/>
<path d="M24.3334 34.5C28.4755 34.5 31.8334 31.1421 31.8334 27C31.8334 22.8579 28.4755 19.5 24.3334 19.5C20.1912 19.5 16.8334 22.8579 16.8334 27C16.8334 31.1421 20.1912 34.5 24.3334 34.5Z" stroke="#F9A51D" stroke-width="2" stroke-linecap="round" stroke-linejoin="round"/>
<path d="M13.8334 40.5C14.9102 38.6727 16.4452 37.1581 18.2867 36.1058C20.1282 35.0535 22.2124 34.5 24.3334 34.5C26.4543 34.5 28.5386 35.0535 30.3801 36.1058C32.2216 37.1581 33.7566 38.6727 34.8334 40.5" stroke="#F9A51D" stroke-width="2" stroke-linecap="round" stroke-linejoin="round"/>
<path d="M30.5209 15C30.8014 13.9136 31.3809 12.9275 32.1937 12.1539C33.0065 11.3803 34.0199 10.8502 35.1188 10.6236C36.2178 10.397 37.3583 10.4832 38.4107 10.8722C39.4632 11.2613 40.3855 11.9377 41.0728 12.8246C41.7602 13.7115 42.1851 14.7734 42.2992 15.8896C42.4134 17.0059 42.2122 18.1317 41.7186 19.1394C41.225 20.1471 40.4587 20.9962 39.5068 21.5902C38.5549 22.1842 37.4554 22.4994 36.3334 22.5" stroke="#F9A51D" stroke-width="2" stroke-linecap="round" stroke-linejoin="round"/>
<path d="M12.3334 22.5C11.2113 22.4994 10.1119 22.1842 9.15997 21.5902C8.20804 20.9962 7.44176 20.1471 6.94816 19.1394C6.45455 18.1317 6.25341 17.0059 6.36756 15.8896C6.48171 14.7734 6.90659 13.7115 7.59394 12.8246C8.28129 11.9377 9.20357 11.2613 10.256 10.8722C11.3085 10.4832 12.449 10.397 13.5479 10.6236C14.6469 10.8502 15.6603 11.3803 16.4731 12.1539C17.2858 12.9275 17.8654 13.9136 18.1459 15" stroke="#F9A51D" stroke-width="2" stroke-linecap="round" stroke-linejoin="round"/>
</g>
<defs>
<clipPath id="clip0_12_565">
<rect x="0.333374" width="48" height="48" rx="24" fill="white"/>
</clipPath>
</defs>
</svg>
