<svg width="49" height="48" viewBox="0 0 49 48" fill="none" xmlns="http://www.w3.org/2000/svg">
<g clip-path="url(#clip0_624_7708)">
<path d="M20.584 30C26.7972 30 31.834 24.9632 31.834 18.75C31.834 12.5368 26.7972 7.5 20.584 7.5C14.3708 7.5 9.33398 12.5368 9.33398 18.75C9.33398 24.9632 14.3708 30 20.584 30Z" stroke="url(#paint0_linear_624_7708)" stroke-width="2" stroke-linecap="round" stroke-linejoin="round"/>
<path d="M4.83398 37.5C8.68711 32.9156 14.1265 30 20.584 30C27.0415 30 32.4809 32.9156 36.334 37.5" stroke="url(#paint1_linear_624_7708)" stroke-width="2" stroke-linecap="round" stroke-linejoin="round"/>
<path d="M42.334 28.5C43.9908 28.5 45.334 27.1569 45.334 25.5C45.334 23.8431 43.9908 22.5 42.334 22.5C40.6771 22.5 39.334 23.8431 39.334 25.5C39.334 27.1569 40.6771 28.5 42.334 28.5Z" stroke="url(#paint2_linear_624_7708)" stroke-width="2" stroke-linecap="round" stroke-linejoin="round"/>
<path d="M42.334 22.5V20.25" stroke="url(#paint3_linear_624_7708)" stroke-width="2" stroke-linecap="round" stroke-linejoin="round"/>
<path d="M39.7352 24L37.7871 22.875" stroke="url(#paint4_linear_624_7708)" stroke-width="2" stroke-linecap="round" stroke-linejoin="round"/>
<path d="M39.7352 27L37.7871 28.125" stroke="url(#paint5_linear_624_7708)" stroke-width="2" stroke-linecap="round" stroke-linejoin="round"/>
<path d="M42.334 28.5V30.75" stroke="url(#paint6_linear_624_7708)" stroke-width="2" stroke-linecap="round" stroke-linejoin="round"/>
<path d="M44.9336 27L46.8817 28.125" stroke="url(#paint7_linear_624_7708)" stroke-width="2" stroke-linecap="round" stroke-linejoin="round"/>
<path d="M44.9336 24L46.8817 22.875" stroke="url(#paint8_linear_624_7708)" stroke-width="2" stroke-linecap="round" stroke-linejoin="round"/>
</g>
<defs>
<linearGradient id="paint0_linear_624_7708" x1="9.33398" y1="18.75" x2="31.834" y2="18.75" gradientUnits="userSpaceOnUse">
<stop stop-color="#3B82F6"/>
<stop offset="1" stop-color="#114FD7"/>
</linearGradient>
<linearGradient id="paint1_linear_624_7708" x1="4.83398" y1="33.75" x2="36.334" y2="33.75" gradientUnits="userSpaceOnUse">
<stop stop-color="#3B82F6"/>
<stop offset="1" stop-color="#114FD7"/>
</linearGradient>
<linearGradient id="paint2_linear_624_7708" x1="39.334" y1="25.5" x2="45.334" y2="25.5" gradientUnits="userSpaceOnUse">
<stop stop-color="#3B82F6"/>
<stop offset="1" stop-color="#114FD7"/>
</linearGradient>
<linearGradient id="paint3_linear_624_7708" x1="42.334" y1="21.375" x2="43.334" y2="21.375" gradientUnits="userSpaceOnUse">
<stop stop-color="#3B82F6"/>
<stop offset="1" stop-color="#114FD7"/>
</linearGradient>
<linearGradient id="paint4_linear_624_7708" x1="37.7871" y1="23.4375" x2="39.7352" y2="23.4375" gradientUnits="userSpaceOnUse">
<stop stop-color="#3B82F6"/>
<stop offset="1" stop-color="#114FD7"/>
</linearGradient>
<linearGradient id="paint5_linear_624_7708" x1="37.7871" y1="27.5625" x2="39.7352" y2="27.5625" gradientUnits="userSpaceOnUse">
<stop stop-color="#3B82F6"/>
<stop offset="1" stop-color="#114FD7"/>
</linearGradient>
<linearGradient id="paint6_linear_624_7708" x1="42.334" y1="29.625" x2="43.334" y2="29.625" gradientUnits="userSpaceOnUse">
<stop stop-color="#3B82F6"/>
<stop offset="1" stop-color="#114FD7"/>
</linearGradient>
<linearGradient id="paint7_linear_624_7708" x1="44.9336" y1="27.5625" x2="46.8817" y2="27.5625" gradientUnits="userSpaceOnUse">
<stop stop-color="#3B82F6"/>
<stop offset="1" stop-color="#114FD7"/>
</linearGradient>
<linearGradient id="paint8_linear_624_7708" x1="44.9336" y1="23.4375" x2="46.8817" y2="23.4375" gradientUnits="userSpaceOnUse">
<stop stop-color="#3B82F6"/>
<stop offset="1" stop-color="#114FD7"/>
</linearGradient>
<clipPath id="clip0_624_7708">
<rect width="48" height="48" fill="white" transform="translate(0.333984)"/>
</clipPath>
</defs>
</svg>
