<svg width="221" height="50" viewBox="0 0 221 50" fill="none" xmlns="http://www.w3.org/2000/svg">
<path d="M24.7191 40.4333C26.2643 36.2758 30.7161 34.0315 34.984 35.356C35.7198 35.54 36.5292 35.1353 36.7868 34.3626C36.8972 33.9947 36.8604 33.6268 36.6764 33.2589C33.7331 27.6665 26.8162 25.5326 21.2607 28.476C15.6683 31.4193 13.5344 38.3362 16.4777 43.8917C18.5749 47.9756 22.9163 50.3303 27.5153 49.9623C24.6087 47.7548 23.4682 43.8917 24.7191 40.4333Z" fill="#2E7ABD"/>
<path d="M42.6366 25.0912C38.9574 15.7461 28.3614 11.1839 19.0163 14.9367C9.6712 18.6894 5.10902 29.2119 8.86178 38.557C10.7382 43.3399 14.5645 47.0559 19.3842 48.8955L18.4644 48.27C13.0193 43.9286 12.0259 36.0184 16.2937 30.4996C17.0296 29.543 17.9493 28.7336 18.9795 28.0345C21.1502 26.4893 23.6521 25.6799 26.3379 25.6431C27.0737 25.6431 27.8831 25.7167 28.619 25.827C29.5755 26.011 30.4585 26.2685 31.3415 26.6365C33.5123 26.011 35.7934 25.9006 38.0009 26.3053C38.8471 26.4893 39.6565 26.7468 40.3923 27.1147C41.2385 27.4459 42.0847 27.1147 42.4895 26.3053C42.7838 25.9006 42.7838 25.4591 42.6366 25.0912Z" fill="#468BCA"/>
<path d="M48.7809 17.0337C44.3659 3.93586 30.2379 -3.05458 17.1032 1.28685C3.96855 5.62828 -2.98509 19.8299 1.35634 32.9646C3.60063 39.6974 8.60431 45.1794 15.1532 47.902C14.6382 47.5709 14.1967 47.2766 13.6816 46.8718C5.18268 40.3597 3.60063 28.3288 10.076 19.8299C11.1062 18.4318 12.3939 17.1809 13.792 16.1139C17.1768 13.5753 21.2975 12.1404 25.6021 12.1036C26.9634 12.1036 28.3247 12.214 29.6124 12.5451C32.7765 13.1706 35.7198 14.6423 38.1481 16.7762L38.3688 17.0337C39.6198 17.0337 40.7603 17.1441 41.9744 17.4384C43.5197 17.7696 44.9914 18.2846 46.3527 18.9837C47.1989 19.4252 48.229 19.0941 48.6705 18.2478C48.8913 17.8799 48.8913 17.4752 48.7809 17.0337Z" fill="#64A6DB"/>
<path d="M49.7007 25.2015L54.3364 40.7644H54.4836L58.9354 25.2015H61.474L65.9258 40.7644H66.073L70.5984 25.2015H72.8795L66.9928 43.4502H64.5646L60.2599 28.2184H60.1127L55.6609 43.4502H53.2327L47.346 25.2015H49.7007ZM75.7492 28.0713C75.3077 28.8071 75.087 29.6901 74.8295 30.6835H77.037C77.037 29.175 77.552 28.0713 78.3983 27.409C79.318 26.6732 80.4954 26.3789 81.8567 26.3789C82.5925 26.3789 83.218 26.4524 83.7699 26.5628C84.3585 26.71 84.8736 26.8939 85.2783 27.2251C85.683 27.5562 86.1245 27.8873 86.3085 28.4024C86.566 28.9175 86.7132 29.5797 86.7132 30.3156C86.7132 30.7571 86.6396 31.1618 86.5292 31.4929C86.3821 31.824 86.1981 32.008 86.0141 32.2287C85.8302 32.4127 85.4991 32.4863 85.1679 32.6335C84.7632 32.707 84.3217 32.8174 83.917 32.8174C82.5925 32.891 81.4888 33.075 80.3114 33.2221C79.2077 33.4061 78.1407 33.6268 77.1841 34.0683C76.1907 34.5098 75.4917 35.0617 74.9398 35.7608C74.4247 36.4966 74.0936 37.4532 74.0936 38.7041C74.0936 39.6239 74.2776 40.4701 74.6087 41.1324C74.9398 41.905 75.3445 42.4569 75.8596 42.8248C76.3747 43.2295 77.037 43.5606 77.7728 43.7446C78.5086 43.9285 79.3548 44.0757 80.201 44.0757C81.1208 44.0757 81.8199 44.0757 82.4821 43.8917C83.1444 43.7078 83.6595 43.487 84.1746 43.1559C84.6896 42.8248 85.1679 42.3833 85.5359 41.9786C85.9406 41.5739 86.3821 41.0588 86.7868 40.3965H86.9339C86.9339 40.8012 86.9339 41.2427 87.0811 41.6474C87.1547 42.0521 87.2651 42.3833 87.4858 42.6776C87.6698 42.9351 88.0009 43.1927 88.332 43.3399C88.6632 43.4134 89.1782 43.5238 89.6933 43.5238H90.4292C90.6131 43.5238 90.9442 43.3767 91.165 43.3767V41.4635C90.981 41.6106 90.6499 41.6106 90.4292 41.6106C89.5829 41.6106 89.1782 41.0956 89.1782 40.2494V30.5731C89.1782 29.3958 88.9207 28.3656 88.516 27.6298C88.1113 26.8939 87.5962 26.2685 86.9339 25.8638C86.3453 25.4223 85.683 25.1279 84.8368 25.0176C83.9906 24.944 83.2548 24.8336 82.4086 24.8336C81.3784 24.8336 80.4586 24.9808 79.6124 25.1647C78.6926 25.3487 77.9935 25.6798 77.3313 26.1949C76.5955 26.71 76.154 27.3354 75.7492 28.0713ZM86.6764 36.3862C86.6764 37.306 86.4924 38.0786 86.1613 38.8145C85.8302 39.5503 85.3151 40.0654 84.8 40.5805C84.2849 41.0956 83.4755 41.5738 82.7765 41.7578C82.0406 42.0154 81.1944 42.1625 80.3482 42.1625C79.7595 42.1625 79.3548 42.1625 78.8398 41.9786C78.435 41.7946 77.9935 41.5739 77.5888 41.2427C77.1841 40.9116 76.853 40.5069 76.669 40.0654C76.4851 39.6239 76.3379 39.072 76.3379 38.5569C76.3379 37.6371 76.669 36.9749 77.1841 36.4598C77.6992 35.9447 78.3615 35.4664 79.2077 35.2825C80.0539 34.9513 81.0473 34.7674 81.9671 34.6202C82.9972 34.5466 83.9906 34.4362 84.9104 34.2155C85.2415 34.2155 85.5726 34.1419 85.9406 34.0315C86.3821 33.8844 86.6764 33.7004 86.7868 33.5165L86.6764 36.3862ZM91.5329 25.2015L98.5969 43.4502H100.878L107.758 25.2015H105.477L99.7743 41.2059H99.6271L93.9244 25.1647H91.5329V25.2015ZM111.548 37.4164C111.364 36.5702 111.217 35.724 111.106 34.9881H125.124C125.197 33.7372 125.124 32.4495 124.793 31.1986C124.609 29.9477 124.057 28.8439 123.431 27.9241C122.769 27.0043 121.813 26.1581 120.893 25.643C119.973 25.1279 118.722 24.7968 117.214 24.7968C115.852 24.7968 114.601 25.1279 113.534 25.643C112.504 26.3053 111.621 26.9675 110.996 27.8505C110.333 28.6967 109.818 29.7637 109.487 30.941C109.156 31.9712 108.972 33.2221 108.972 34.3995C108.972 35.6504 109.156 36.9013 109.487 38.0786C109.818 39.256 110.333 40.2861 110.996 41.1691C111.658 42.0889 112.504 42.7512 113.534 43.2663C114.565 43.7814 115.705 44.0021 117.214 44.0021C119.495 44.0021 121.334 43.487 122.585 42.3097C123.836 41.1323 124.793 39.5503 125.197 37.4532H122.99C122.659 38.8145 121.996 39.9918 121.077 40.838C120.083 41.6842 118.832 42.0889 117.287 42.0889C116.257 42.0889 115.264 41.8314 114.528 41.4267C113.792 40.9852 113.019 40.4333 112.615 39.7343C112.21 38.9984 111.732 38.2626 111.548 37.4164ZM122.548 30.5363C122.806 31.3825 122.953 32.2287 122.953 32.9646H111.18C111.327 32.1184 111.511 31.2722 111.842 30.5363C112.173 29.6901 112.504 29.1014 113.019 28.4392C113.534 27.7769 114.049 27.2619 114.785 26.9307C115.521 26.5996 116.294 26.4156 117.214 26.4156C118.133 26.4156 118.906 26.5628 119.642 26.9307C120.378 27.3722 120.893 27.7769 121.408 28.4392C121.886 29.0647 122.217 29.8373 122.548 30.5363ZM128.288 25.2015V43.3031H130.495V33.2221C130.495 32.3023 130.643 31.4561 130.827 30.6099C131.01 29.7637 131.342 29.175 131.746 28.5128C132.188 27.9977 132.74 27.4826 133.439 27.1515C134.101 26.8204 134.947 26.6364 135.867 26.6364C136.603 26.6364 137.118 26.7836 137.633 26.9675C138.074 27.1515 138.479 27.4826 138.81 27.8873C139.141 28.3288 139.325 28.8807 139.473 29.3958C139.546 29.9845 139.657 30.4995 139.657 31.1618V43.4502H141.901V33.1117C141.901 32.2655 141.974 31.4193 142.085 30.6835C142.269 29.8373 142.526 29.2486 142.931 28.5864C143.262 27.9241 143.777 27.409 144.439 27.0779C145.102 26.7468 145.948 26.5628 146.868 26.5628C148.487 26.5628 149.627 27.0043 150.289 27.7402C150.878 28.5864 151.209 29.6901 151.209 31.1986V43.4502H153.417V31.1618C153.417 26.8571 151.393 24.76 147.383 24.76C146.205 24.76 145.028 25.0911 143.998 25.6062C142.968 26.1213 142.085 27.0411 141.57 28.2184C141.128 27.1147 140.466 26.2685 139.546 25.6062C138.553 25.0911 137.449 24.76 136.272 24.76C134.837 24.76 133.512 25.0176 132.593 25.6798C131.673 26.2685 130.937 27.1147 130.311 28.292H130.164V25.2015H128.288ZM158.016 28.0713C157.611 28.8071 157.427 29.6901 157.096 30.6835H159.303C159.303 29.175 159.745 28.1449 160.665 27.409C161.584 26.6732 162.762 26.3789 164.123 26.3789C164.859 26.3789 165.484 26.4524 166.036 26.5628C166.625 26.71 167.14 26.8939 167.545 27.2251C167.949 27.5562 168.391 27.8873 168.575 28.4024C168.832 28.9175 168.98 29.5797 168.98 30.3156C168.98 30.7571 168.906 31.1618 168.796 31.4929C168.648 31.824 168.464 32.008 168.281 32.2287C168.097 32.4127 167.765 32.4863 167.434 32.6335C167.03 32.707 166.588 32.8174 166.183 32.8174C164.859 32.891 163.755 33.075 162.578 33.2221C161.474 33.4061 160.407 33.6268 159.451 34.0683C158.457 34.5098 157.758 35.0617 157.206 35.7608C156.691 36.4966 156.36 37.4532 156.36 38.7041C156.36 39.6239 156.544 40.4701 156.875 41.1324C157.206 41.905 157.611 42.4569 158.126 42.8248C158.641 43.2295 159.303 43.5606 160.039 43.7446C160.775 43.9285 161.621 44.0757 162.467 44.0757C163.387 44.0757 164.086 44.0757 164.749 43.8917C165.411 43.7078 165.926 43.487 166.441 43.1559C166.956 42.8248 167.434 42.3833 167.802 41.9786C168.207 41.5739 168.648 41.0588 169.053 40.3965H169.2C169.2 40.8012 169.2 41.2427 169.347 41.6474C169.421 42.0521 169.531 42.3833 169.752 42.6776C169.936 42.9351 170.267 43.1927 170.598 43.3399C170.93 43.4134 171.445 43.5238 171.96 43.5238H172.696C172.879 43.5238 173.211 43.3767 173.431 43.3767V41.4635C173.247 41.6106 172.916 41.6106 172.696 41.6106C171.849 41.6106 171.445 41.0956 171.445 40.2494V30.5731C171.445 29.3958 171.187 28.3656 170.782 27.6298C170.378 26.8939 169.863 26.2685 169.2 25.8638C168.612 25.4223 167.949 25.1279 167.103 25.0176C166.257 24.944 165.521 24.8336 164.675 24.8336C163.645 24.8336 162.725 24.9808 161.879 25.1647C160.959 25.3487 160.26 25.6798 159.598 26.1949C158.862 26.71 158.384 27.3354 158.016 28.0713ZM168.943 36.3862C168.943 37.306 168.759 38.0786 168.428 38.8145C168.097 39.5503 167.581 40.0654 167.066 40.5805C166.551 41.0956 165.742 41.5738 165.043 41.7578C164.307 42.0154 163.461 42.1625 162.615 42.1625C162.026 42.1625 161.511 42.1625 161.106 41.9786C160.701 41.7946 160.26 41.5739 159.855 41.2427C159.45 40.9116 159.119 40.4701 158.935 40.0654C158.751 39.6239 158.604 39.072 158.604 38.5569C158.604 37.6371 158.935 36.9749 159.451 36.4598C159.966 35.9447 160.628 35.4664 161.474 35.2825C162.32 34.9513 163.314 34.7674 164.233 34.6202C165.264 34.5466 166.257 34.4362 167.177 34.2155C167.508 34.2155 167.839 34.1419 168.207 34.0315C168.648 33.8844 168.943 33.7004 169.053 33.5165L168.943 36.3862ZM178.03 18.3215H175.86V43.5238H178.067V36.5702L181.673 33.6268L188.884 43.5238H191.643L183.328 32.008L191.128 25.2751H188.185L178.03 34.1051V18.2847V18.3215ZM195.102 37.4164C194.918 36.5702 194.771 35.724 194.66 34.9881H208.678C208.751 33.7372 208.678 32.4495 208.347 31.1986C208.163 29.9477 207.611 28.8439 206.985 27.9241C206.323 27.0043 205.367 26.1581 204.447 25.643C203.527 25.1279 202.276 24.7968 200.768 24.7968C199.406 24.7968 198.155 25.1279 197.088 25.643C196.058 26.3053 195.175 26.9675 194.55 27.8505C193.888 28.6967 193.372 29.7637 193.041 30.941C192.71 31.9712 192.526 33.2221 192.526 34.3995C192.526 35.6504 192.71 36.9013 193.041 38.0786C193.372 39.256 193.888 40.2861 194.55 41.1691C195.212 42.0889 196.058 42.7512 197.088 43.2663C198.119 43.7814 199.259 44.0021 200.768 44.0021C203.049 44.0021 204.888 43.487 206.139 42.3097C207.39 41.1323 208.347 39.5503 208.751 37.4532H206.544C206.213 38.8145 205.551 39.9918 204.631 40.838C203.637 41.6842 202.423 42.0889 200.841 42.0889C199.811 42.0889 198.818 41.8314 198.082 41.4267C197.346 40.9852 196.573 40.4333 196.169 39.7343C195.764 38.9984 195.286 38.2626 195.102 37.4164ZM206.176 30.5363C206.36 31.3825 206.618 32.2287 206.581 32.9646H194.807C194.955 32.1184 195.139 31.2722 195.47 30.5363C195.801 29.6901 196.132 29.1014 196.647 28.4392C197.162 27.7769 197.677 27.2619 198.413 26.9307C199.149 26.5996 199.921 26.4156 200.841 26.4156C201.761 26.4156 202.534 26.4892 203.269 26.9307C204.005 27.3722 204.52 27.7769 205.035 28.4392C205.514 29.0647 205.845 29.8373 206.176 30.5363ZM213.866 25.0543H211.842V43.3031H214.049V33.6268C214.049 32.707 214.233 31.8608 214.565 31.0146C214.896 30.1684 215.3 29.5797 215.926 28.9175C216.441 28.2552 217.177 27.8137 218.023 27.5562C218.869 27.2987 219.715 27.1515 220.782 27.1515V24.944C219.2 24.7968 217.765 25.2751 216.588 25.9741C215.484 26.7468 214.491 27.8873 213.976 29.359H213.829V25.1647V25.0543H213.866Z" fill="#2E7ABD"/>
</svg>
